<mxfile host="Electron" modified="2024-04-26T19:52:31.405Z" agent="Mozilla/5.0 (Windows NT 10.0; Win64; x64) AppleWebKit/537.36 (KHTML, like Gecko) draw.io/24.2.5 Chrome/120.0.6099.109 Electron/28.1.0 Safari/537.36" etag="MqLh-KmO_UVZI5Ceu9mC" version="24.2.5" type="device">
  <diagram name="Page-1" id="EwWpa1mtRgNHiCv73q41">
    <mxGraphModel dx="2049" dy="2546" grid="1" gridSize="10" guides="1" tooltips="1" connect="1" arrows="1" fold="1" page="1" pageScale="1" pageWidth="827" pageHeight="1169" math="1" shadow="0">
      <root>
        <mxCell id="0" />
        <mxCell id="1" parent="0" />
        <mxCell id="34IzVIIsoAp-5MnXt8t_-1" value="" style="shape=image;verticalLabelPosition=bottom;labelBackgroundColor=default;verticalAlign=top;aspect=fixed;imageAspect=0;image=data:image/png,iVBORw0KGgoAAAANSUhEUgAAA7sAAAOCCAYAAAC278WTAAAAAXNSR0IArs4c6QAAAARnQU1BAACxjwv8YQUAAAAJcEhZcwAADsMAAA7DAcdvqGQAAKyDSURBVHhe7f1trCRXnt/5BbvrgXWLdYush+4iKXJaLY4kLikN3HoYSYtdLiEbkAA/YK2GpTXWoLELNGBgCQsNywBlA/YLG/tibJRe+6WxL7wyVosFVhawu7RMEZAau2pip1tUkzNUTYs11d3DYjVZRVZVk7fY5fuLm//ivw7PiTgn4kRmZOT3M8POiBMn/uchM+vmP09k5iOXL1++//qxK83Jc2caHDn+yUGz9/6d5uYLZ1cly7WksZ5/48PmxksXVnvzNcc539TcrXMuphrj2bdvNnee3WsOzhxflQw3NtbQ80vmJvc+27t2t7298/Sp9jamq93UsdgYw7Kwj74vftvOO37rXltmjn/8+WqraY59eLDaOnLlypXm/J99tjn76bFVycPuXTj+lXMkVS65x65fv958+uJ+c+nMuXb/YP/Yg3HafNmYxI75+fHzmtr29cO5DOc6vJ/69mOPi7BO6jEW1pOwPyZWV1LlqThdj/e+50KqLel7fvTFllSfvZw6Oc9Vya0nXWMPldQt6YPkzGOotA1TMg4v5z5KGXOuDO2zGTpXobH9MGPnw6s1Nq/WOL2aYw5N0V8z5LlZ6tY715rXXn6l+dpqHwAAAACAxSDZBQBghrpWfAEAQD+SXQAAAADA4pDsAgAAAAAWh2QXAIAN4VJlAACmQ7ILAEAlSlyVwAIAgM0j2QUAAAAALA7JLgAAAABgcUh2AQAAAACLQ7ILAMDM8MVVAACMR7ILAAAAAFgckl0AACriG5kBAJgHkl0AAAAAwOKQ7AIAMDFWewEAWD+SXQAANoAvoQIAYFokuwAAzAhJMAAAdZDsAgAAAAAWh2QXAIACxz/4nM/fAgCwBUh2AQCojC+kAgBg80h2AQCYCT6vCwBAPSS7AAAAAIDFIdkFAAAAACwOyS4AAAAAYHFIdgEAAAAAi0OyCwBAIb5tGQCA+SPZBQBgBvgmZgAA6iLZBQAAAAAsDskuAAAAAGBxSHYBABig73O7fK4XAIDNItkFAAAAACwOyS4AAGvGl1EBADA9kl0AAAaqdakyyS8AAPWR7AIAAAAAFodkFwAAAACwOCS7AACMwLcuAwAwTyS7AAAAAIDFIdkFAAAAACwOyS4AACNxKTMAAPNDsgsAAAAAWBySXQAANojf2AUAYBokuwAAAACAxSHZBQCggtjndvksLwAAm0OyCwAAAABYHJJdAAAAAMDikOwCAAAAABaHZBcAAAAAsDgkuwAAVMIXUgEAMB8kuwAAAACAxSHZBQAAAAAsDskuAAAAAGBxSHYBAAAAAItDsgsAwIboy6z0pVYAAKA+kl0AACriG5kBAJgHkl0AAAAAwOKQ7AIAAAAAFodkFwAAAACwOCS7AAAAAIDFIdkFAGBm+IIrAADGI9kFAGBG+DkiAADqINkFAAAAACwOyS4AADPBqi4AAPWQ7AIAUJkSVj53CwDAZpHsAgAAAAAWh2QXAAAAALA4JLsAAMwAn9cFAKAukl0AAAAAwOKQ7AIAAAAAFodkFwCACfHNzAAAbAbJLgAAG8BndAEAmBbJLgAAAABgcUh2AQAAAACLQ7ILAMCGcUkzAAD1kewCAAAAABaHZBcAAAAAsDgkuwAATICfHAIAYLNIdgEAWCM+nwsAwHqQ7AIAAAAAFodkFwAAAACwOCS7AAAAAIDFIdkFAAAAACwOyS4AAAAAYHFIdgEAqGTITw3x7cwAAEyDZBcAAAAAsDgkuwAAAACAxXnk8uXL939w9cfN6UdPrYoguqRsyOVo22gpY92mccytr5vsz7ranqqdmnHHxhp6ful5ufX76nUdTx2LleeU+X3bTpWJ3/auXLnSXLp0qdnb21uVdEvFka5jMdevX29vn3j+qYf6G7uVrrLcbck9Jn37MqSO5JZJrXKZ4phMfVxy6sim6klJXZm6vqzrHBl6now5V8aeL3OJIbXimLnHkylimiljy9TxP/j4RvP9737vKNl98/a7zYkLZ1aHcPzWveb4x583d57NezGzzZY01v23bja3vnN2tTdfc5zzTc3dOudiqjHuvX+nOXj8RHOwf2xVMtzYWEPPL5mb3Psspy9d7aaOxeKGZWEf/fHYtuqGt/ZHWLdeTrIbO8/+oMfixurHKNn99MX95pkvHmv7KTZOmy8bkz/mx+znNbXt63fNpYT3U99+eL6EdVKPsbCexOJJrK6kylNxuh7vfc+FVFuSas/0xZa+GFKrjuTWk66xh0rqlvRBcuYxVNqGKRmHN7Q9GXOuDO2zGdu+GdsPU6s/UjOWqTVOb4p+min6a4Y8N0t9+qOrXya7rx+70pw8R7Jrjn9y0D54br4wzR08J0sa6/k3PmxuvHRhtTdfc5zzTc3dOudiqjGefftm+4/1wZnx706OjTX0/JK5yb3P9q7dbW/vPJ2+aqir3dSx2BjDsrCPvi9+287TH11Pf4DN2GTXtmPJbnjbx5LdS2fOtft6cWPjtPmyMYkd8/Pj5zW17euHcxnOdXg/9e3HHhdhndRjLKwnYX9MrK6kylNxuh7vfc+FVFvS9/zoiy2pPns5dXKeq5JbT7rGHiqpW9IHyZnHUGkbpmQcXs59lDLmXBnaZzN0rkJj+2HGzodXa2xerXF6NcccmqK/Zshzs9Std641r738Cp/ZBQAAAAAsD8kuAAAAAGBxSHYBAAAAAItDsgsAAAAAWBySXQAAAADA4pDsAgBQkf/2ZQAAsDkkuwAAAACAxSHZBQAAAAAsDskuAAAAAGBxSHYBAJhI3+d3dUx1AABAfSS7AAAAAIDFIdkFAAAAACwOyS4AAAAAYHFIdgEAAAAAi0OyCwAAAABYHJJdAAAq6/sW5pQh5wAAgDiSXQAA1oyfHAIAYHokuwAAzAAJMAAAdZHsAgAAAAAWh2QXAAAAALA4JLsAAAAAgMUh2QUAAAAALA7JLgAAAABgcUh2AQAAAACLQ7ILAMCG8bNDAADUR7ILAAAAAFgckl0AAAAAwOKQ7AIAAAAAFodkFwAAAACwOCS7AAAAAIDFIdkFAAAAACwOyS4AAAAAYHFIdgEAAAAAi0OyCwDABI59eNDcu3B8tQcAANaNZBcAAAAAsDgkuwAAbIBWfbX6CwAApkGyCwBABUMvWSbpBQBgGiS7AAAAAIDFIdkFAKACvpAKAIB5IdkFAAAAACwOyS4AAAAAYHFIdgEAAAAAi0OyCwAAAABYHJJdAAAAAMDikOwCAAAAABaHZBcAgEr4+SEAAOaDZBcAAAAAsDgkuwAAAACAxSHZBQAAAAAsDskuAAAAAGBxSHYBAAAAAItDsgsAAAAAWBySXQAAAADA4pDsAgAAAAAWh2QXAIAJHfvwoL09ePxEewsAANaDZBcAgBm5d+H4agsAAIxBsgsAwIYosbWVXwAAUBfJLgAAFSl5Hbo6S/ILAEA9JLsAAAAAgMUh2QUAAAAALA7JLgAAAABgcUh2AQAAAACLQ7ILAAAAAFgckl0AACYy5puZAQDAOCS7AADMAD87BABAXSS7AAAAAIDFeeTy5cv337z9bnP6xKlVEY5//Hl7e/D4ifZ2yZY01lPv3W7uPnd6tTdfc5zzTc3dOudiqjHWjDs21tDzS87Lvc9y6nW1mzoWKw/Lwrb9vt+286zM2KXHsVXWK1euNJcuXWr29vZWJXHh+XYps5XZ8ZLV3OvXrzcHT55svvH4+VXJET+WcEz+mJRuh3Ppj0npfhhPcupIWE9iZVKrPNUX6TomqZjSd27fcemKb3Lq5LQlufUkp11TUrekD1JaX4acIyXj8IaeJ2POlbHnD52r0Nh+mFpxpNbYvJr9M1PENFPGnmJ+Qx/99OfN97/7vaOV3eO/PGoQRzTxuS8+tt0ujXUumPMvLWEulKzYP9pjjY1Vsy8pm77PYmMMy3L7mJovlet83Q7l27d4xscPy0vExqkYGpM/ZmW5fP2wjdJYQ5Q8xmr1JxWnqy8l/SyVEztn7Ou4v+ZsyvuoljH30a7fv6FdnI9tHfM6n5vtyu7rx640J8+dWRXh+CcHzd77d5qbL5xdlSzXksZ6/o0PmxsvXVjtzdcc53xTc7fOuZhqjGffvtnceXavOTgz/kuIxsYaen7J3OTeZ3vX7ra3d55OXzXU1W7qWGyMYVnYR98Xv23nHb91ry0z/oVD+Md4yMqutkV/3PVOue0bX6/rj79Wdj99cb+5dOZcu3+wf+zBOG2+bExix/z8+HlNbfv64VyGcx3eT337scdFWCf1GAvrSdgfE6srqfJUnK7He99zIdWW9D0/+mJLqs9eTp2c56rk1pOusYdK6pb0QXLmMVTahikZh5dzH6WMOVeG9tkMnavQ2H6YsfPh1RqbV2ucXs0xh6borxny3Cx1651rzWsvv8JndgEAAAAAy0OyCwAAAABYHJJdAAAAAMDikOwCAAAAABaHZBcAAAAAsDgkuwAAAACAxSHZBQAAAAAsDskuAAAVhL+fCwAANotkFwCACo59eDA44dV5Oh8AANRDsgsAAAAAWBySXQAAKhuzygsAAOog2QUAAAAALA7JLgAAAABgcUh2AQAAAACLQ7ILAAAAAFgckl0AAAAAwOKQ7AIAUAnfwgwAwHyQ7AIAAAAAFodkFwAAAACwOCS7AACs2cHjJ9pLngEAwHRIdgEAAAAAi0OyCwDABuiLrFjdBQBgOiS7AAAAAIDFIdkFAAAAACwOyS4AAAAAYHFIdgEAAAAAi0OyCwAAAABYHJJdAAAAAMDikOwCADAT+jkiAABQB8kuAAAAAGBxSHYBAKjo2IcHrNACADADJLsAAAAAgMUh2QUAYIO0CqzVYAAAUBfJLgAAAABgcUh2AQAAAACLQ7ILAMAMcDkzAAB1kewCAAAAABaHZBcAAAAAsDgkuwAAAACAxSHZBQAAAAAsDskuAAAAAGBxSHYBAAAAAItDsgsAAAAAWBySXQAAAADA4pDsAgAAAAAWh2QXAAAAALA4JLsAAAAAgMUh2QUAAAAALA7JLgAAAABgcUh2AQCo5N6F46utpjn24cFD++bg8RPN8Y8/X+0BAICpkOwCAAAAABaHZBcAgA3TCrBWggEAQD2PXL58+f6bt99tTlw4syrC8Vv32kvM7jy7typZriWNdf+tm82t75xd7c3XHOd8U3O3zrmYaox7799pL0s92D+2KhlubKyh55fMTe59llOvq93UsdgYw7Kwbb/vt+28ts5hmbZ1a2LJ55UrV5pLly41e3vxcYVJa3gZs47dfe50c+q92w/qWp2+ZPf69evNwZMnmye+9eRD/dVYbL7CMflxan78vKa2ff1wLsO5Du+nvv3Y4yKnjoT1JOyPidWVVHkqTqov0nVMUm1J37l9xyXVZy+nTk5bkltPusYeKqlb0gcprS9DzpGScXg591HKmHNlaJ/N0LkKje2HGTsfXq2xebXG6dUcc2iK/pop5jd049oHzWsvv3KU7P7g6o+b04+eWh2C+BcgS7eUsW7TOObW1032Z11tT9VOzbhjYw09v/S8nPpj66SOxcr7yvq2Y7fit01fsmti5/bF7mPJ7lP39tvzRTEslr+NHfNluduSe0xK96V2mdQql3UfM311asSQnDqSW0/mUNeUnjOkDVn3eTLmXNn0+WZucaRmLLMtMc2UsWXq+B/95GfNq6++epTsvn7sSnPyHCu75vgnB+07JTdfmObdjDlZ0ljPv/Fhc+OlC6u9+ZrjnG9q7tY5F1ON8ezbN9t3Jg/OjP8He2ysoeeXzE3ufbZ37W57e+fp9BupXe2mjsXGGJaFffR98dt2nt5h9vRus9EfYy93ZdffGr37rhVdrexaG75O2FZIye6nL+43l86ca/f1Tr6N0+bLxiR2zM+Pn9fUtq8fzmU41+H91Lcfe1yEdVKPsbCehP0xsbqSKk/F6Xq89z0XUm1J3/OjL7ak+uzl1Ml5rkpuPekae6ikbkkfJGceQ6VtmJJxeDn3UcqYc2Von83QuQqN7YcZOx9erbF5tcbp1RxzaIr+miHPzVK33rnWruzymV0AAAAAwOKQ7AIAUElqVRcAAKwfyS4AAAAAYHFIdgEAmJBWefV5XQAAsF4kuwAAAACAxSHZBQAAAAAsDskuAAAAAGBxSHYBAAAAAItDsgsAAAAAWBySXQAAAADA4pDsAgAAAAAWh2QXAAAAALA4JLsAAAAAgMUh2QUAYCbuXTi+2gIAAGOR7AIAAAAAFodkFwAAAACwOCS7AAAAAIDFIdkFAKCiYx8e8NlbAABmgGQXAAAAALA4JLsAAAAAgMUh2QUAYEN0ubMuew63AQDAeCS7AAAAAIDFIdkFAAAAACwOyS4AAAAAYHFIdgEA2CA+qwsAwDRIdgEAAAAAi0OyCwAAAABYHJJdAAAAAMDikOwCAAAAABaHZBcAAAAAsDgkuwAAAACAxSHZBQAAAAAsDskuAAAAAGBxSHYBAAAAAItDsgsAQCX3LhxfbQEAgE0j2QUAAAAALA7JLgAAAABgcUh2AQDYMF3+fOzDg9UeAACogWQXAIA1O3j8BMktAAATI9kFAAAAACwOyS4AAJVotZZvZAYAYB5IdgEAAAAAi/PI5cuX7//whz9s9vb2VkUAACDmypUrzaVLlzbyN/P69evt7cWLF9tbAAAQp7+Zr7766lGy+/qxK83Jc2dWh3D8k4Nm7/07zc0Xzq5KlmtJYz3/xofNjZcurPbma45zvqm5W+dcTDXGs2/fbO48u9ccnBl/6erYWEPPL5mb3Pts79rd9vbO06fa25iudlPHYmMMy8I++r74bTvv+K17bZk5/vHnq62jy5K9nGQ3vIxZMe4+d7rdPvXe7Ye2fd2+L6zSH+5PX9xvLp051+4f7B97ME6bLxuT2DE/P35eU9u+fjiX4VyH91PffuxxEdZJPcbCehL2x8TqSqo8Fafr8d73XEi1JX3Pj77Ykuqzl1Mn57kqufWka+yhkrolfZCceQyVtmFKxuHl3EcpY86VoX02Q+cqNLYfZux8eLXG5tUap1dzzKEp+muGPDdL3XrnWvPay69wGTMAAAAAYHlIdgEAAAAAi0OyCwAAAABYHJJdAAAq0+dvDx4/sdoDAACbQLILAMAE9EVXJLwAAGwOyS4AAAAAYHFIdgEAAAAAi0OyCwAAAABYHJJdAAAAAMDikOwCADAT9y4cX20BAICxSHYBAAAAAItDsgsAAAAAWBySXQAAAADA4pDsAgAAAAAWh2QXAAAAALA4JLsAAFR07MMDvlUZAIAZINkFAGAGlCArUQYAAHWQ7AIAAAAAFodkFwCAiR3/+PPmYP/Yag8AAKwDyS4AAAAAYHFIdgEAAAAAi0OyCwAAAABYHJJdAAAAAMDikOwCAAAAABaHZBcAAAAAsDgkuwAAbNDB4yeaYx8erPYAAEAtJLsAAAAAgMUh2QUAAAAALA7JLgAAAABgcUh2AQAAAACLQ7ILAEAF9y4cX20BAIA5INkFAGBD9E3Mxz/+fLUHAABqItkFAGAiSmRZ8QUAYDMeuXz58v0fXP1xc/rRU6siiH7zcFdeoCxlrNs0jrn1dZP9WVfbU7VTM+7YWEPPLz0vt35fva7jqWOx8pwyv2/bqTLx296VK1eaS5cuNXt7e6uStDCGb7OvnZjr16+3t088/9RDcWK30lWWuy25x6RvX4bUkdwyqVUuUxyTqY9LTh3ZVD0pqStT15d1nSNDz5Mx58rY82UuMaRWHDP3eDJFTDNlbJk6/gcf32i+/93vHSW7b95+tzlx4czqEI7fute+G3/n2f4XM9tuSWPdf+tmc+s7Z1d78zXHOd/U3K1zLqYa4977d9pLUQ/2j61Khhsba+j5JXOTe5/l9KWr3dSxWNywLOyjPx7bVt3w1v4I69brSnZ9fdv2f8gV+9R7t9syvy2p9jwlu5++uN8888Vj7fli47T5sjH5Y37Mfl5T275+11xKeD/17YfnS1gn9RgL60ksnsTqSqo8Fafr8d73XEi1Jan2TF9s6YshtepIbj3pGnuopG5JHyRnHkOlbZiScXhD25Mx58rQPpux7Zux/TC1+iM1Y5la4/Sm6KeZor9myHOz1Kc/uvplsvv6sSvNyXMku+b4Jwftg+fmC9PcwXOypLGef+PD5sZLF1Z78zXHOd/U3K1zLqYa49m3b7b/WB+cGf/u5NhYQ88vmZvc+2zv2t329s7T6auGutpNHYuNMSwL++j74rftPP3R9fQH2IxJdkNqSy8e7j53ut1Xsqtta68r0RVLdi+dOdfu68WNjdPmy8YkdszPj5/X1LavH85lONfh/dS3H3tchHVSj7GwnoT9MbG6kipPxel6vPc9F1JtSd/zoy+2pPrs5dTJea5Kbj3pGnuopG5JHyRnHkOlbZiScXg591HKmHNlaJ/N0LkKje2HGTsfXq2xebXG6dUcc2iK/pohz81St9651rz28it8ZhcAAAAAsDwkuwAAVGCXIgMAgHkg2QUAAAAALA7JLgAAAABgcUh2AQAAAACLQ7ILAAAAAFgckl0AAAAAwOKQ7AIAAAAAFodkFwAAAACwOCS7AAAAAIDFIdkFAAAAACwOyS4AAAAAYHFIdgEAmJF7F46vtgAAwBgkuwAAVHbsw4Pm4PETqz0AALAJJLsAAAAAgMUh2QUAAAAALA7JLgAAAABgcUh2AQAAAACLQ7ILAAAAAFgckl0AAAAAwOKQ7AIAMBP6jV39bBEAABiPZBcAgEqUqCphBQAAm0eyCwAAAABYHJJdAAAmcPzjz5uDx0+s9gAAwLqR7AIAAAAAFueRy5cv33/z9rvN6ROnVkXQu/GyC+/IL2msp9673dx97vRqb77mOOebmrt1zsVUY6wZd2ysoeeXnJd7n+XU62o3dSxWHpaFbft9v23nWZmxz93GvijqypUrzaVLl5q9vb1VyVf5c+3zu9pXW2rTl1ndVHve9evXm4MnTzbfePz8quSIH0s4Jn9MSrfDufTHpHQ/jCc5dSSsJ7EyqVWe6ot0HZNUTOk7t++4dMU3OXVy2pLcepLTrimpW9IHKa0vQ86RknF4Q8+TMefK2POHzlVobD9MrThSa2xezf6ZKWKaKWNPMb+hj3768+b73/3e0cru8V8eNYgjmvi+Fx1LsUtjnQvm/EtLmAslKfaP9lhjY9XsS8qm77PYGMOy3D6m5kvlOl+3Q1jbdr7FSt031p5t54qN09rxx7rajvH1wzZKYw1R8hir1Z9UnK6+lPSzVE7snLGv4/6asynvo1rG3Ee7fv+GdnE+tnXM63xutiu7rx+70pw8d2ZVhOOfHDR7799pbr5wdlWyXEsa6/k3PmxuvHRhtTdfc5zzTc3dOudiqjGefftmc+fZvebgzLDEyBsba+j5JXOTe5/tXbvb3t55On3VUFe7qWOxMYZlYR99X/y2nXf81r22zPgXDuEf45KVXd3qD7rFU1v7b9188E65vWtux+2c1AsArex++uJ+c+nMuXb/YP/Yg3HafNmYxI75+fHzmtr29cO5DOc6vJ/69mOPi7BO6jEW1pOwPyZWV1LlqThdj/e+50KqLel7fvTFllSfvZw6Oc9Vya0nXWMPldQt6YPkzGOotA1TMg4v5z5KGXOuDO2zGTpXobH9MGPnw6s1Nq/WOL2aYw5N0V8z5LlZ6tY715rXXn6Fz+wCAAAAAJaHZBcAAAAAsDgkuwAAbMAufr4MAIB1ItkFAAAAACwOyS4AAAAAYHFIdgEAqECXJQMAgPkg2QUAAAAALA7JLgAAG7TOH9cHAGCXkOwCAAAAABaHZBcAAAAAsDgkuwAAAACAxSHZBQAAAAAsDskuAAAV6Eum+PkhAADmg2QXAIAZUKLMtzIDAFAPyS4AAAAAYHFIdgEAAAAAi0OyCwDAGh3sH2uOf/z5ag8AAEyFZBcAAAAAsDgkuwAAAACAxSHZBQAAAAAsziOXL1++/4OrP25OP3pqVQTZpd9LXMpYt2kcc+vrJvuzrranaqdm3LGxhp5fel5u/b56XcdTx2LlOWV+37ZTZeK3vStXrjSXLl1q9vb2ViXdYjFz2om5fv16e/vE8089FCd2K11luduSe0z69mVIHcktk1rlMsUxmfq45NSRTdWTkroydX1Z1zky9DwZc66MPV/mEkNqxTFzjydTxDRTxpap43/w8Y3m+9/93lGy++btd5sTF86sDuH4rXvtl4fceTbvxcw2W9JY99+62dz6ztnV3nzNcc43NXfrnIupxrj3/p3m4PET7ZcOjTU21tDzS+Ym9z7L6UtXu6ljsbhhWdhHfzy2rbrhrf0R1q3Xl+zaH+7YH3HFPvXe7ebuc6fbNrxUe56S3U9f3G+e+eKxNpbYOG2+bEz+mB+zn9fUtq/fNZcS3k99++H5EtZJPcbCehKLJ7G6kipPxel6vPc9F1JtSao90xdb+mJIrTqSW0+6xh4qqVvSB8mZx1BpG6ZkHN7Q9mTMuTK0z2Zs+2ZsP0yt/kjNWKbWOL0p+mmm6K8Z8tws9emPrn6Z7L5+7Epz8hzJrjn+yUH74Ln5wjR38Jwsaazn3/iwufHShdXefM1xzjc1d+uci6nGePbtm+0/1gdnxr87OTbW0PNL5ib3Ptu7dre9vfN0+qqhrnZTx2JjDMvCPvq++G07T390Pf0BNmOTXb0IsXhqy148qH9ix0uS3UtnzrX7enFj47T5sjGJHfPz4+c1te3rh3MZznV4P/Xtxx4XYZ3UYyysJ2F/TKyupMpTcboe733PhVRb0vf86IstqT57OXVynquSW0+6xh4qqVvSB8mZx1BpG6ZkHF7OfZQy5lwZ2mczdK5CY/thxs6HV2tsXq1xejXHHJqiv2bIc7PUrXeuNa+9/Aqf2QUAAAAALA/JLgAAAABgcUh2AQCYkfCzvgAAYBiSXQAAAADA4pDsAgAAAAAWh2QXAAAAALA4JLsAAAAAgMUh2QUAAAAALA7JLgAAFR378IBvVAYAYAZIdgEAmAklyUqWAQDAeCS7AAAAAIDFIdkFAKASLmEGAGA+SHYBAAAAAItDsgsAAAAAWBySXQAAAADA4jxy+fLl+z+4+uPm9KOnVkWQXfrc1VLGuk3jmFtfN9mfdbU9VTs1446NNfT80vNy6/fV6zqeOhYrzynz+7adKhO/7V25cqW5dOlSs7e3tyrpFovZ1U6qXbl+/Xp7+8TzTz0UJ3YrXWW525J7TPr2ZUgdyS2TWuUyxTGZ+rjk1JFN1ZOSujJ1fVnXOTL0PBlzrow9X+YSQ2rFMXOPJ1PENFPGlqnjf/Dxjeb73/3eUbL75u13mxMXzqwO4fite83xjz9v7jyb92Jmmy1prPtv3Wxufefsam++5jjnm5q7dc7FVGPce/9Oc/D4ieZg/9iqZLixsYaeXzI3ufdZTl+62k0di8UNy8I++uOxbdUNb+2PsG69nGQ39cdbsU+9d7u5+9zptg0v1Z6nZPfTF/ebZ754rI0lNk6bLxuTP+bH7Oc1te3rd82lhPdT3354voR1Uo+xsJ7E4kmsrqTKU3G6Hu99z4VUW5Jqz/TFlr4YUquO5NaTrrGHSuqW9EFy5jFU2oYpGYc3tD0Zc64M7bMZ274Z2w9Tqz9SM5apNU5vin6aKfprhjw3S336o6tfJruvH7vSnDxHsmuOf3LQPnhuvjDNHTwnSxrr+Tc+bG68dGG1N19znPNNzd0652KqMZ59+2b7j/XBmfHvTo6NNfT8krnJvc/2rt1tb+88nb5qqKvd1LHYGMOysI++L37bztMfXU9/gE2NZFcvROyPur14UP/8MUt2JZXwWrJ76cy5dl8vbmycNl82JrFjfn78vKa2ff1wLsO5Du+nvv3Y4yKsk3qMhfUk7I+J1ZVUeSpO1+O977mQakv6nh99sSXVZy+nTs5zVXLrSdfYQyV1S/ogOfMYKm3DlIzDy7mPUsacK0P7bIbOVWhsP8zY+fBqjc2rNU6v5phDU/TXDHlulrr1zrXmtZdf4TO7AAAAAIDlIdkFAAAAACwOyS4AAAAAYHFIdgEAAAAAi0OyCwBABalvYQYAAJtBsgsAAAAAWBySXQAAAADA4pDsAgAAAAAWh2QXAIAJHPvwoDl4/MRqDwAArBvJLgAAAABgcUh2AQAAAACL88jly5fvv3n73ebEhTOrIhy/da85/vHnzZ1n91Yly7Wkse6/dbO59Z2zq735muOcb2ru1jkXU41x7/077aWqB/vHViXDjY019PySucm9z3LqdbWbOhYbY1gWtu33/bad19Y5LNO2bo0uQw5duXKluXTpUrO399Vx6aeH7Bzbvvvc6QcxFf/Ue7cfKjOqaz9dFGtXrl+/3hw8ebJ54ltPPtRfjcXmKxyTH6fmx89ratvXD+cynOvwfurbjz0ucupIWE/C/phYXUmVp+Kk+iJdxyTVlvSd23dcUn32curktCW59aRr7KGSuiV9kNL6MuQcKRmHl3MfpYw5V4b22Qydq9DYfpix8+HVGptXa5xezTGHpuivmWJ+QzeufdC89vIrR8nuD67+uDn96KnVIYh/4bF0SxnrNo1jbn3dZH/W1fZU7dSMOzbW0PNLz8upP7ZO6lisvK+sbzt2K37bdCW7JjyvtI0US3afurffniexuKljvix3W3KPSem+1C6TWuWy7mOmr06NGJJTR3LryRzqmtJzhrQh6z5Pxpwrmz7fzC2O1IxltiWmmTK2TB3/o5/8rHn11VePkt3Xj11pTp5jZdcc/+Sgfafk5gvTvJsxJ0sa6/k3PmxuvHRhtTdfc5zzTc3dOudiqjGefftm+87kwZnx/2CPjTX0/JK5yb3P9q7dbW/vPJ1+I7Wr3dSx2BjDsrCPvi9+287TO8ye3m02+mPs9SW7/g+3ztUqrtg72PZOufonekfe2rM//GGbRsnupy/uN5fOnGv39U6+jdPmy8YkdszPj5/X1LavH85lONfh/dS3H3tchHVSj7GwnoT9MbG6kipPxel6vPc9F1JtSd/zoy+2pPrs5dTJea5Kbj3pGnuopG5JHyRnHkOlbZiScXg591HKmHNlaJ/N0LkKje2HGTsfXq2xebXG6dUcc2iK/pohz81St9651q7s8pldAABmoCvRBQAA5Uh2AQAAAACLQ7ILAAAAAFgckl0AAAAAwOKQ7AIAAAAAFodkFwAAAACwOCS7AAAAAIDFIdkFAAAAACwOyS4AAAAAYHEeuXz58v03b7/bnD5xalWE4x9/3t4ePH6ivV2yJY311Hu3m7vPnV7tzdcc53xTc7fOuZhqjDXjjo019PyS83Lvs5x6Xe2mjsXKw7Kwbb/vt+08KzPHPjxo7l043t6Grly50ly6dKnZ29tblTzMzvO3om21pTZ9Wbit25Tr1683B0+ebL7x+PlVyRE/lnBM/piUbodz6Y9J6X4YT3LqSFhPYmVSqzzVF+k6JqmY0ndu33Hpim9y6uS0Jbn1JKddU1K3pA9SWl+GnCMl4/CGnidjzpWx5w+dq9DYfphacaTW2Lya/TNTxDRTxp5ifkMf/fTnzfe/+72jld3jvzxqEEc08V0vOJZkl8Y6F8z5l5YwF0pQ7B/tscbGqtmXlE3fZ7ExhmW5fUzNl8p1vm5L2Xlh+74t65/FD8/JbTc2TmvHH/Nt5/D1wzZKYw2Re/9Jrf6k4nT1paSfpXJi54x9HffXnE15H9Uy5j7a9fs3tIvzsa1jXudzs13Zff3YlebkuTOrIhz/5KDZe/9Oc/OFs6uS5VrSWM+/8WFz46ULq735muOcb2ru1jkXU43x7Ns3mzvP7jUHZ8oTo9DYWEPPL5mb3Pts79rd9vbO0+mrhrraTR2LjTEsC/vo++K37bzjt+61Zca/cAj/GOes7Bqda++KK6ba2n/rZnPrO2fb/on+4IftKUbsRYBWdj99cb+5dOZcu3+wf+zBOG2+bExix/z8+HlNbfv64VyGcx3eT337scdFWCf1GAvrSdgfE6srqfJUnK7He99zIdWW9D0/+mJLqs9eTp2c56rk1pOusYdK6pb0QXLmMVTahikZh5dzH6WMOVeG9tkMnavQ2H6YsfPh1RqbV2ucXs0xh6borxny3Cx1651rzWsvv8JndgEAAAAAy0OyCwAAAABYHJJdAAAAAMDikOwCAAAAABaHZBcAAAAAsDgkuwAAzETqm5gBAEC59qeH3rz9bnPiAj89ZPQzFPYzEUu3pLHaT3rM3RznfFNzt865mGqM+up8/XyMfgZmrLGxhp5fMje591lOva52U8diYwzLwrb9vt+289o6h2Xa1q2JJZ05Pz3kfz5IPz1kMRXffqTft+N1Jbr66aGDJ082T3zryYf6q7HYfIVj8uPU/Ph5TW37+uFchnMd3k99+7HHRU4dCetJ2B8Tqyup8lScVF+k65ik2pK+c/uOS6rPXk6dnLYkt550jT1UUrekD1JaX4acIyXj8HLuo5Qx58rQPpuhcxUa2w8zdj68WmPzao3Tqznm0BT9NVPMb+jGtQ/anx5qk90fXP1xc/rRer8jtQT2YmUXLGWs2zSOufV1k/1ZV9tTtVMz7thYQ88vPS+n/tg6qWOx8r4y2/784Gazd3PvK+W6vXP2zoNj2heV3d6/3W5fvHqxve1LdsXHENsPb/0xE+57luw+dW+/rSexuKljvix3W3KPSem+1C6TWuWy7mOmr06NGJJTR3LryRzqmtJzhrQh6z5Pxpwrmz7fzC2O1IxltiWmmTK2TB3/o5/8rHn11VePkt3Xj11pTp5jZdes44eO52JJY53yx69rmuOcb2ru1jkXU42x5g+6j4019PySucm9z3J+kL+r3dSx2BjDsrCP1pefnnuvOXnrbvPkvT/T9svOu3Hyg+ZXX/yy+dYvn2vrff7Fzea9c7/b7H39qba+fHT6o+bZD55tPnnjk96VXaM/5FrFFXsH294pV//EysLzYpTsfvrifnPpzLl2X+/k2zhtvmxMYsf8/Ph5TW37+uFchnMd3k99+7HHRVgn9RgL60nYHxOrK6nyVJyux3vfcyHVlvQ9P/piS6rPXk6dnOeq5NaTrrGHSuqW9EFy5jFU2oYpGYeXcx+ljDlXhvbZDJ2r0Nh+mLHz4dUam1drnF7NMYem6K8Z8twsdeuda+3KLp/ZBQDshLMnvtUmrbdPH72IkU8/v9r88vN/0Vz87OlVSdMmukpsf/PKs8233/l2+5/23//G+81H3/xoVWs8XXqmS7kAAMA0SHYBADvh5NfPNE9+9pvN9ZPXViVN8/OTv98msqdvH717/+lnP22euP1E88Tdp9p9o8uYVe+JvSdWJXG2KqtEFgAAbBbJLgBgZzzxqyfbS5NvfX6t+eDSjebciRebx05+a3W0aT45/Ulz5nb8Yz3t53b/YLUDAABmj2QXALBTzn/2bHvpslZ1z3/2jVUpAABYGpJdAMBOOfH1s+2XT+myZAAAsFzttzH/8Ic/7PwZBQAAluTKn77SXq5sPylkVC76UqqQjn30w4+a5x95fiN/M/VtzHLx4sN9BgAAD9PfTH56KGEdX4c9F0sa65RfkV7THOd8U3O3zrmYaow1v/Z/bKyh55fMTe59lvOzDV3tpo7FxhiWhX30fbFt/QzRhZ8fa05efO6hb0S2nx3SF1l94xfnH3zh1PVnrrffxvzE//uJrN/Z1RdUnXrvdudPD9mXWKkePz30ZZ3UYyysJ2F/TKyupMpTcboe733PhVRb0vf86IstqT57OXVynquSW0+6xh4qqVvSB8mZx1BpG6ZkHF7OfZQy5lwZ2mczdK5CY/thxs6HV2tsXq1xejXHHJqiv2bIc7MUPz0EAEBAlzgr0dXned+/8G67mqv/lOhy2TMAANuFZBcAsHP0m7snjsV/Rkgrur/1r/9S8+ixC+2lzpd+fql5/r3nv3LJc8ivzgIAgM0j2QUALMr15herrTT95u7pT7ovT1PSqwR37+Ze+98YujR5isvMAABAGskuAGBRvn7ya83t00eftwIAALuLb2MGACzKv/qNf9U8+fGTo1djY65cudL7BVVT4duYAQDIw7cxd1jHN4TNxZLGOuW3xtU0xznf1Nytcy6mGmPNb0IcG2vo+SVzk3uf5XyTZVe7qWOxMYZl7137h80fO/F88+jFo58P8n3x23ae/zZm0Tcnm/CbkbuSXX1mV/Vj38asbY1H4+LbmB9+XIR1Uo+xsJ6E/TGxupIqT8Xperz3PRdSbUnf8yPneZbqs5dTJ+e5Krn1pGvsoZK6JX2QnHkMlbZhSsbh5dxHKWPOlaF9NkPnKjS2H2bsfHi1xubVGqdXc8yhKfprhjw3S/FtzACAxfnVnVtN88jhH7m9T1clAABgV5HsAgAW4+7tj5tHvnaY7T5y+B8AANhp7WXMb95+tzlxgcuYjS5p02Vsuixg6ZY01v23braXB87dHOd8U3O3zrmYaoy6DEeXo+qS0rHGxhp6fsnc5N5nOfW62k0di43Rl33w+c+bX977F83XTnyt+ZPH/mp73PfFb9t5bZ3DMm3r1sQuJ869jFm0rcuYFVPbGo/GZWXWXnhOii5jPnjyZPPEt5586HyNxeYrHJMfp+bHz2tq29cP70d/TPx50rcfe1zk1JGwnoT9MbG6kipPxUn1RbqOSaot6Tu377ik+uzl1MlpS3LrSdfYQyV1S/ogpfVlyDlSMg4v5z5KGXOuDO2zGTpXobH9MGPnw6s1Nq/WOL2aYw5N0V8zxfyGblz7oL2MuU12f3D1x83pR+tdk74E/sXH0i1lrNs0jrn1dZP9WVfbU7VTM+7YWEPPLz0vp/7YOqljsXJfduOzP2zef+b95msnv9Y89+FvNafvnnroeGw7dit+2+R+QVUsTk4b4b5nye5T9/bbehKLmzrmy3K3JfeYlO5L7TKpVS7rPmb66tSIITl1JLeezKGuKT1nSBuy7vNkzLmy6fPN3OJIzVhmW2KaKWPL1PE/+snP+IKqlHV8aHouljTWKT9IX9Mc53xTc7fOuZhqjDW/HGJsrKHnl8xN7n2W8+UeXe2mjsXG6Muu/sFbzRePX28e+fojzaVTf7k5efzMQ33x23ae3mH29G6z0R9jry/ZtT/ceqedL6j66n7scRHWST3GwnoS9sfE6kqqPBWn6/He91xItSV9z4+c51mqz15OnZznquTWk66xh0rqlvRBcuYxVNqGKRmHl3MfpYw5V4b22Qydq9DYfpix8+HVGptXa5xezTGHpuivGfLcLMUXVAEAFufTz95vHtHndQ///5e3rqxKAQDALnrwmd3TJ+q9c7Ht7F19e9d9yZY0Vr+KMmdznPNNzd0652KqMdaMOzbW0PNLzsu9z3LqdbWbOhYrt7LPPvm4+Zdf/++aRy8+2jRfb5qT977ZfPvOn3yoL37bzrMyY5dWxVZYcy5jtlVaf4mWttWW2vSruGLtpNo0dhnzNx4/vyo54scSjskfk9Lt8H70x6R0P4wnOXUkrCexMqlVnuqLdB2TVEzpO7fvuHTFNzl1ctqS3HqS064pqVvSBymtL0POkZJxeEPPkzHnytjzh85VaGw/TK04UmtsXs3+mSlimiljTzG/oY9++vPm+9/93tHK7vFfHjWII5r4rhccS7JLY50L5vxLS5gLJSj2j/ZYY2PV7EvKpu+z2Bit7Nax2+3ly1rVlbv3f360kZCaL5VrjLotZed2ic3hkLZScTQmf8zKcvn6YRulsYYoeYzV6k8qTldfSvpZKid2ztjXcX/N2ZT3US1j7qNdv39Duzgf2zrmdT43+cxuxDquI5+LJY11ys8W1DTHOd/U3K1zLqYaY83Py4yNNfT8krnJvc9yPu/U1W7qWGyMVqZvYv7w9o+ak4+fbO4/cr/59Re/bp589N9szt04+pZK9cX3y86by2d27ZwUPrP7cD0J+2NidSVVnorT9Xjvey6k2pK+50fO8yzVZy+nTu5nE3PrSdfYQyV1S/ogOfMYKm3DlIzDy7mPUsacK0P7bIbOVWhsP8zY+fBqjc2rNU6v5phDU/TXDHlulrLP7HIZc4S90LEXIku2pLFOeblFTXOc803N3TrnYqox1ow7NtbQ80vOy73Pcup1tZs6Fiu3sg8/v9b87MS7zYkzJ5r7+r/795tnD/5888QfHSW76ovvl51nZUYJrpLP2LvOXMb85TEp3Y89LnLqSFhPYmVSqzzVF+k6JqmY0ndu33Hpim9y6uS0Jbn1JKddU1K3pA9SWl+GnCMl4/CGnidjzpWx5w+dq9DYfphacaTW2Lya/TNTxDRTxp5ifkNcxtxBE9/1gmNJdmmsc8Gcf2kJc6EExf7RHmtsrJp9Sdn0fRYbo5X98mu3ji5hXv13/9f3m1/d/qitE5OaL5VrjLotZed2ic3hkLZScTQmf8zKcvn6YRulsYYoeYzV6k8qTldfSvpZKid2ztjXcX/N2ZT3US1j7qNdv39Duzgf2zrmdT43uYw5Yh1L63OxpLFOeblFTXOc803N3TrnYqox1ryEaGysoeeXzE3ufZZzCVhXu6ljsTFa2ZVf/rj5/OQvmmOnjx1muk3z64NfN098/YXmqdtHcdQX3y87bw6XMaue2u36489lzA/Xk7A/JlZXUuWpOF2P977nQqot6Xt+5DzPUn32curkXq6ZW0+6xh4qqVvSB8mZx1BpG6ZkHF7OfZQy5lwZ2mczdK5CY/thxs6HV2tsXq1xejXHHJqiv2bIc7PUQ5cx//CHP+y8JAsAgLl7Z/+d5taTtx4ku18cfNE8e/XZ5ps3v7mqMV7OZcxTUbIrFy9ebG8BAECc/ma++uqrrOzGrOPdhrlY0linfAeqpjnO+abmbp1zMdUYa76rOjbW0PNL5ib3Pst5V7yr3dSx2Bit7MqNHzefP/rlyu4Xn3/RnPv6i81Td47iqC++X3YeK7sPb/v64f3tj4k/T/r2Y4+LsE7qMRbWk7A/JlZXUuWpOF2P977nQqot6Xt+5DzPUn32curkrmDl1pOusYdK6pb0QXLmMVTahikZh5dzH6WMOVeG9tkMnavQ2H6YsfPh1RqbV2ucXs0xh6borxny3CzFyi4AYFHald1Lt5pjj32Z7D77/rPNNz9hZRcAgF3y0Mou38b8MHtX3951X7IljdWvoszZHOd8U3O3zrmYaow1446NNfT8kvNy77Ocel3tpo7Fyq3s/V++1dy8cPNBsvvrX/+6+Y2Dv9A88cHh/iH1xffLzrMyo9VVrdDGVllzv43ZYhjtqy216cslbC/Vtv5w823MX9aTWJnUKk/1RbqOSSqm9J3bd1y64pucOjltSW49yWnXlNQt6YOU1pch50jJOLyh58mYc2Xs+UPnKjS2H6ZWHKk1Nq9m/8wUMc2UsaeY35B9G/ODld0Tz063jLyNwhcqS7aUsW7TOObW1032Z11tT9lOzdhjYw05v/Sc3Pp99bqOlx5T2dXf+Lj5+cnf+zLZ/eLXzfPvPt+cPPP4Q+fEtmO3MTmXMftz/X5XO+F5Mbay+8TzT0Xj6FZKy8JtqXFMwn0ZUkdiZTK2rql5jnQdk7HHZZ11pHY9KakrU9eXdZ1jtvFcM5cYZq6xpHY8s21xzdTxP/j4xsPJLpcxAwC22R/t/1Hzry/96y+T3XuHye7vPd+c/qzeO9NcxgwAwPzZZczt7+wCALD1fn3432GSa+7fv1810QUAANuFZBcAsAiPHTy22lpR8gsAAHZWexnzP/yH/3C1CwDAdrr/jfvNjf/BjebYmaPLmO99dq+58F/W/dmEjz76qHniiSdWe+u36fYBANgWf/fv/t2jZPef/JN/0pw+zaVeAIDt9emjnzY//VM/bZNdXcL8xd0vmhffenF1dLxf/OIXq62m/dzuuv3kJz9pb5XsbqJ9AAC2hf5mP0h2+YIqAMC2u33ydvMvnvkXzfH9422ye+/2vea3f++3V0fH8V8OtYkvqVL7n3zySfPtb3+7bf/MmTN8URUAAAl8QRUAYFnsM7qrL6k6f/vh36MdKvwWZCWafpV3XdSuKOFV4mv9AgAAcSS7AIBFOH3w8MdxtLo7Vpjoij72o8/OrtP777//UB9IeAEA6EeyCwBYppG5bizRFV2+rM/N3rlzZ1UyLfXj2WefXe19iYQXAIBufGYXALAY/+w3/llz8tzJwzz3fvPH/uCPNd/8+JurI2VSia5RoqtLme3S4ilpVffP/bk/t9r7Kj7DCwDAw/R3XJ/ZJdkFsFXuXTi+2ko79uFBVr1SteIqjgyNNfT8kv7n1u2r13U8NY7YOWHd1P4/e3aV7D5yv/nGx3+ieeYPHm/r2HEJ90N9ia6ozr/9b//bzW/91m+tSqbzu7/7u41+NaGrP2HCa2NM3YZ1ZMy2hMckd1+64pkxZTJ1uQw9JlMfl1p1RPUAYI5IdgEAi/NPn/mnzaPnH/1yZfdm2cpuSaL7t//2316VTO/v/b2/V5zwAgCwqyzZ5TO7WAy9Cz3kPwDzFD5Hw+dt7Pg37n2j3W6/nOrw//3xPnNNdEXtqV3rY4x9hvdnx261+36eTFim2756sW0J9wHMiz1Hc//z5wBLwcouNm7oP6rhZVZcTjVPdh/lXhY3hj0GardTs+9jYw05Pzzn4PETq62vOvXe7bZuV53jH3/exrz73MPffux1xYkds5i+3JcZv69t8fvvPftec+v8rebXX/y6eeYPnmm++Uneyu6cE10vd4X30T95oXnq3n47NzZn/lb6yiR3W+zxoPvXtsPHSt+++PNF+xKWqX3/GOorU1vG998bUi4l50jXedJ1row9LrXqyNh6Kse85Nyfodj9y32LTdHfbC5jxmhD/jEM7do/hDXmbKjUC40pravNqdoZEte/2Db2Qjt2LEfshXyfWCIh/kW/p7rSN97YnFi/Um1KV3/C8lhZmLjYcdvWsXe/+dPms+N/1Pz6179unv+955uTjz3eHuuyLYmuKbmk+Ynnn3owNzZfmke7tfvRH7M5tnpi2+H9EtaJ3T/hsZx9f5+acF9KyqwvRm2ItSm+XV8uYR9NLI4pPWZl6oOE4zB9xyU2D15ODOmLI7mxxMfrOy+nbVNSV4bUl5JzJGzH4uyK0vkSP2e7Nl+oh2R3xjbxj+KQf4xkG/4RGjq2Gvw/2Cacs3X0z9oc01bsxVof/8JxHYb0sUvqxW0fe8Fqxs7BkPNL7/OcNrpi2rFNe+/p95pbF49Wdp///eeb0796OMEJbVuia3bpM7z+8RY+TmOPydTjNDxXSupKqly6zpGcY+G/NX3/Bul4mMR7Of+GpWL4f8e6xuB1zY9n8br6LrE3BLwhfTSl9SV3fMba8Er6V9KWV3JurI9zMnQOZF1j832c+3zuEpLdmdITZoonij0RU/8AbuLJOfQfMOtr7vl+bEPbLBX2seuFRpgY1WJtKr760/eios+Qfqrdqefc2vD381wNnYsh82jzUXJe3+PU+pGq1/XCOnUsVh6W2WPvzrNHf6f237rZPp4P9o+121ZX5/3ouavNF/sfNl8cfHG0snsmvbK7rYmuyU14H/nLTzfPfPFYO0eaS7s1mh/Npz/my0Rzv/f+nfa4zbv9m+LvL22LP2bbPq7E6kqqvvi2jG/DWD3PHgex8ty6EqsvqXLpamOuYv1Njc+bop7E6vrHgYk9HrpYfXus9+nqT8j6Z7Fj/U21W9JOqGtuLa6J1es6P0fs/LDddVAfSuaiBmtrE+PFw0h2d8Q6nnSpf0T69PUpFrfrH60c1uaYGF3sD1n4xzb3j2hNm/iHNpzXsfdXDrVR8sImR9cLE9GL/Vw+MTt+696qNI/6YePLbVNt6PF36ztnVyXdfNKS4vsRY8d1X4dzljoWixmra0mL9rUt2lc9v223H5z/oLn27LXm3sG95t/4/X+jOf1ZvM/bnuiaMSu84dyl5lXC47rfwvvQ/7vn77dYPTtm+/5xEDsuYR2/H7ah54uSc7E3SUTPD9UNyyyef57F6orV9300qi+xcptDO+bb8v9OhPw41HYonItQqq9eVwwbk933itXFxtmnL54dX5ecPpvcMXqpc1KPITOkLROemxurtE3V71M6Bt+HnPhDTB0fm0Wyi2Kpf6iG/COR849ebtzSf0AlFXtILG/KfzCH9k196jq36wVQKf+iyNqsGT/U9yJviNSLVS98MRJjj4Va99uUj60Ua79vLF3HU8di5SrTvs19eF/4F+22LTpPjwOVfXDug+YPf+MPmy8++6L5C//yL7THQ0tJdE3JCu8f/6OTD+bKbjWPdn+Ex3yZn3uVSbjt7xPx+13HJLUv/nyJ7W+C74OJ9d+E/fa6jomO21yH9FzpOi7+vopJxbAE3JJ/6fr3UUrrxfhzc8bn2Vi74nt9cx9S/amE/bC2avSvJIbkjjMWNzanQ+ctFR/oQrKLIvqHZsw/LLX+wZMxsWL/YHo1//Hsa6uE/ujn/tE2NpawH+GLj9K4XuyFjMWzY2Pid6l5X4Vq3Hex+Y/NV4zmTOfnvrATvSC1S3rDlaiY1KqVZytY6kdsxUm6VqRix2IxrUx9tzny+34+bDu8j6zsl/euNX/4x/+wufere81f/MlfXB390tISXbPuL62K3SfaFntchY+xcIXSYulxENaN7fv6VqY66pfFiNUJy8Rfkm1UZuOweKLzbfxeqlx98vPh6RyxOQ7pvCHHxI7rdgrWtsXv6ov09ddYvXAePc2p5MaUVFyL5ZXENbXP0bFafBuxNkvaqtnfsF9jKFbNOcPykOxiq4z5R63mP66S+odfFN+Op9rqOj8lFqsvju+LZ7GG9COUGuMQpf1JjU+6XjSl2AvUMOaQWKkXwTm6Xih3sTZzdM2dqXnfplgfrC3fJ99Hfzzc9mVy/eL15uofu9rcu3uY7L7zcLK71ETXjF3h9WLz68skd3sdrD2xNsMyvy+xemJ1w+evzVWoqzwWR/Q8T5Wr/dTz3xI1f66V2XhS50qqr+LjhHMSyq1Ti28rp21jdX1fus7tix0bU25fJHa+yWk3HMtQ1taYWLX6AkyFZBfIFP4BKvnHPfbHa+z5pi9O17lS449Uam762jaxF2x91EYYP3zRmBvLU9zYi8DSWLH+mRpzbmJznzvvYd3Yi+6uF+pi8xI7bsdsVc6EK8+26ubbCeP6F+e27evY+Tamz+/cbN75U+80B58eNL/9+7/d1pO5Jbq/+Mf/uDnz3HPN6WeeWZUcuX31avPJe+81l15+eVXyZdknv/u7zZnf+q2HjoXGrvBqbm1eY3Nt94XKdT/aaq2O+7qxbdUPV1r9aq/4eGL3r98X64f4fonaiz0fSsokVV6DYsfaNiXHbG6MzVmXWHyL4+fP33+ejktXOzrX7q+c/kiqnh0fqq99yWkjFsfmKvd8q29Kxxb2ofR8YFeQ7AIZcv+AheyP0ZhzpeR83+bQfhvfhy6xNnLPlSHn2/g8i1PStjdmroy1HetfLjs3fPEaYy9Aw/a6zrUXsT4xkPDFbF8/wgTES73Qjs1LWOb3tT3EnUfvNO88/05z9uOzzZ/4gz/Rls0t0RUlu9f+zt9p/vR//p8/SHiV1L7z7/67D5VZvf1//99vE13R/tO/8zvJpHfMl1aNofvO7rdwW2L3b+yYJUldCW34GPQJmrH9WJ3cMi/WLxOW23NKcSSMJbE2jJ03Riq2dLUtvv0hccL+d8UwXWMOz89tt4TFs9ilsfz5JYaeZ4b0FdgFJLsAHrA/tib3D6f/I136Bzts0/SdnzpPxvzB74rbx14Ey5A4Nc439iI75O+jLmPm0MTaibUflvl927a5Cct1G3P75O3m3effbc7ePEp255jomt8/TErlN1ft/vDP//mHkthYQixW/uf++T9flXxVySXN9rNElrDZfNscW5ndhmVi50jsfrRt6TpWg8UU34bpK/PPJz8uLxZDrNxipBJnM+aY9B0fyuLG+pATe8g5Jjam3PPHtAtgWUh2AbT04mDIC4Ix50npi5+xL1rCF0FGcbvip87zxpwr/vySc7r6nSPWlsVNseM+IRBLslXuE+5YvDCGP1csoVIdG59tp27N7eO325Xdx2893uz/d/tt2RwTXbGVXCW4xq/WKhlOXbasc8NLoENTfWmVn3srU73YY6Dr8aBtCWP7x4El04rhz5XwfEnVGcvHlFjbErbX1Tcv1k/V7TvH6qSkzpWu87r4mKUx7Nwh5w3p79DzAGw/kl0AizfkRZk/R4aeJ33n2guxIf2MifVBLGZqbLF+hFL9tLLY+WEd6TovdczKc9w+dpTs/vr6r5tv/fhbs010jSW8Eq7UaqU3XNUtNdUlzXa/+Psnd1vsXNuW2DEJ66aOiY9l2yZVz3Sdm8vOjcXNMeS8MW1ZX0vOA4BtQLILAFvMv8A1XS9YY/VN3wtd/6I4VNKmj9HX5hj//MV/3nz0r/9vzbnf/1Orkof9ySf+6+ZXt/6LNtH9n/+Nv938v/6L1YFDf+7PNM1vfrtpnh2eXxaxZFefybXLmU2NZFdyE95H/+SF5ql7+w/d3+H9FCsr5R8DJY8Hqys556bqS197vq7Y+X3nxQw9DwAwnCW7X1vtAwC2iF48h/+l2Ivt1H8pOs+/UA/Ps3JP9U2srt+OsTZtu5T+uDX3m+aZ4/+y+capf/3Qf/LDO081/+2/evZBovsb/0Fb3Pyt/9nRf6Ky968ebU/NX8asz+LmUpKcSyvXGm87Nwnf/va3m1/93ofNz47dau8ff797dkz8/ePLfHmMfwz4bek61+qG56baTNXXf7l9tP+srO+8GDsfALB+X/9rf+2v/Z9//vOfN8ePl/8DDgCYv6/d+fVqq4zOKz13SFtKIHSebpUYWIzSWJbMffLcJ80373zYPPXF7zdnH/3vH/z3X37wv2z+xK/+cfMf/Y3fbRPAx7/bNP/N/7Fp/lf/i6Y5e/bov29/q2n2bjXNv3i3af7Nh3+mtzolt49885vNb/x7/17z6NNPN3/wH/6Hzdm//tebE+rIodt37jSf/OQnzfm/9Jfafe/Hf/WvNl/7zd9sHvvjf3xV0u0vHcbQ3/qfHMY7ffqr3yYsTzzxRHP9vWvNvXv3mjOPPPrQ/eLvi9j948v0X3hOrqHnlJ43pB0Zeh4AYL3uHP4N/e3f/m1WdgEAm+VXzoayRFeX6t7/9f12ddf74S/+Tw8lurZy+1dfOrr1/vf/0dF/U7JvVLZLl3WpslZ4tdJrq7ZP/Y2/0dz6T/6Tr6z46ourdNlz1+/txuSu8H7yySdtnTH3y5j7EgCAWkh2AQBbzSe68sSdJx5Kdq/e/F+3ly9boiu/f6W92Qgls/ZbuZ6SVyWxP/vP/rN23xJg1dXnd5Xk6lbCz/fmKk14AQDYZnxBFQBga4WJbkiJ7j+68Zeb//v/+B833//ffrkSqpVdfTb3/n+9Kpg5/xndsV9YJVN9SzMAAHOg1wd8QRUAYGv1JbqffPZX2kT3d/6nVx9KdHOs6wuqcinBtf9qYIUXALALWNkFAGydVKJ79eO/2Xxw99vNN05dbf7RL/+tNtH9370aTxAf+R8dfUFV+Lnd199omv/h/6Vs1ffO1asP3j1+ZHV7+733Hmzf+t3fbbdVx8q++Pt/v7l3/35z7j/+j5svDm+/OCz7RuHncMdihRcAsES2skuyCwDYKvoD9v7777ffHqwkTPQNwzfu/k+af/RHf6VpTlw4zCpPNt+894fNf/v//Gqia7+ha0mtEt6/8u2rzdcPy9688kxb9o8Ok+R/68/8q7ZMH/+9e5isHju8feSRR9r92//pf9p87XD74Ne/VmGbxB7/2tea+4dJq6ieklr99/XVOcdWZWK3OiZ3D+P8+vBcfdfvrXv3mkf+5t9sHv+t32ruHe6ffu65aiu6MbGEV99iKbdv325Xdz/66KPm+eef57UCAGArkOwCALZS7LJaJWT/zY3vH2achwnb8cNk99S3Vke+6h/c+/81f/Hz/8NhFnu/+a+O/1+b/+DEl6up/5t77zd//Vf/oPkzj/z95u4XWmtt2gRUSawS1s8Ok9IHCesqUZUwiZV2e1UndVwJsxJe/adk+sG2K1cirQT4zN/6W81jf/bPNncP928c/ndllVjX8Hf+zt9p3zwQJba2rTcT9EbCL37xC1Z3AQBbg2QXALCVLNkNE6//xz/9d442PvvZ4f8cJoInn27+ypO3m28+9v9pHj9MUl84LG0TTP13mNC1t4f/fXqYNH79Zz872j9MLq2OktkHZbYdqaPV3zZpXe2L9nXcttvb1X+Hlb7Shsp0q9VdpbD67+isw0T+woXmV4f9v3H2bPOHq7LfW8WsSW8YXLp0Kfp6IDXnAADMEckuAGArpRKvq794uvlH75w5zBg/P/zvs6Y5tt9879/5yepouUc+/fTotv3fw3C3brXb9p+S0xOrpFn7SnY/W31215JfS3rt1lZq2/3D/0Srxlo9VqJ77Omn2+1fPPtse+yT06fb26npsmWt3upLqWJIdgEA24RkFwCwlboSr6u/ON+89e5B8xf/9M3mscdONWdO/2p1ZHO6kuZ7+/tt2b3HHmtvN4VkFwCwJJbs6g1mAAAW4ZlLN5o/88x/35w9c3cWia7cP0xk9d+vV/99/tRTzWeH//3q8D8luZtOdAEAWCqSXQAAAADA4rSXMesnB/RtiwAAzJ39HI6+TCnGvjmYv2v5+ua07zgAAHOiv1sPPrP7D370/10V76aTV+82nz1zarW3LNs8trn3fS79W3c/1tHeFG3UiDkmxpBzS87JqdtXp+t47FhOWde+bXfdxvifxuniY/S142+ldFv69qW0Tlf9vu2uW0ltx2jO9/7sU9FY/lZKy7q2JfeYlO7LkDpmbF1Jlcu6j0nfcakRQ2q05dVs15tbfTPkvKFtyZhzZdPnS40YUiuO1IwltePJFDFlqrhy50c/a37nd37nKNl9/diV5uS5ox/m30Xn3/iwufHShdXespx9+2Zz59m95uDM8VXJ9pjz/XL8k4Nm7/07zc0Xzq5KNmMT/di7dvSC+M7T0/zjJLXv+1rzNGbsQ84tef7mzFlfvFSM1PzFxhS24fd9HL9tdY7futeec/zjz5uDx0+0t8c+PGjuXTje3pqcL0vSOZ7i7791s7n1nbNtu9r3t74fEutnOA/hWMP5C49LWCecw7CN8Lg/38e3cn++lVk9letW83D3uaNV71Pv3W63ddtFc/7pi/vNM1889lAsu8+M+hm26/vnx5OzLX7MXcekbz+8T8L5lrANiZXFzpVYXYk9HiRVnoovQ49Jqj3Td7wvvqTmwMuJIzmxJDee5MaUkrhSWl9K+mOGtCND2jJ9j40uQ/vrhc/nIcaMwasVR2rGktrxZIqYMlVcufXOtea1l1/h25gBANuFbwZeP+YcALBN7NuYWdk9VOOdorma8h2Tqc35fqnxDmUNm+jHmHeFc9W+72vN05ixDzm35PmbM2d98VIxUvMXG1PYht/3cfy21am9sqsYWrH02+HKrtq3cVs/JNZP8XPUNdbYvoRzHM5h2F54PNW+lfv6VuZvbfyaD7H5ET/HIVZ2v1oWO1didSX2eJBUeSq+DD0mqfZM3/G++JKaAy8njuTEktx4khtTSuJKaX0p6Y8Z0o4Macv0PTa6DO2vFz6fhxgzBq9WHKkZS2rHkyliylRx5aGV3R9c/XFz+tHyB/1S2IupJdrmsc2973Pp3yb6MXWbU8SvFXNMnNJzS+rn1O2r03U8dSwsL9m37bBMrDymdJXRx/LtpW6ldFv69iWnrGu/ZDvn1oT7IT/nPobE4qbqjN2W3GPSty+1y2RsXbPuY9J3XNZZR2rXk6nqSml9Wdc5su7zzKbPlxoxpFYcqRlLaseTKWLKVHHlg49vNN//7veOkt03b7/bnLiwuyu79jmuJdK7aHoH/2D/2Kpke8z5ftFqhlad9G7UJm2iH+t4TNW+72vN05ixDzm35JycOeuLl4qRmr9YvLDM7/s4ftvqaN9ujf0h1K3JXdkVO19x7fOpvh21b+P2fbWycOx+jrrGGtuXcI7DOmF74XF/fmzb17cyf2vjF9WzlV0/vzF+ZVfn+Tn0t77dWF98Wc622LnSdUz69sPzY4/tsI7EymLnSqyulJan4svQY5Jqz/Qd74svfTEkJ47kxJLceJIbU0riSml9KemPGdKODGnLjDl3aH+98Pk8xJgxeLXiSM1YUjueTBFTpoorn/7o6pfJLpcxj78sYq6mvDxganO+X2pcjlPDJvox5hKoXLXv+1rzNGbsQ84tef7mzFlfvFSM1PzFxhS24fd9HL9tdfRiSPSCSH/8dFsj2bUvY7IXWvaCydq3cfu+Wlk4dj9H4fi7xm7COQ5jhO2Fx/35sW2rrxcO4fh0a+Nu66zm2HQlvD7Z1ZgUQ7d2nxn109qLzacfT8622LnSdUz69sP7JPbYDtuQWFnsXInVldjjQVLlqfgy9Jik2jN9x/viS2oOvJw4khNLcuNJbkwpiSul9aWkP2ZIOzKkLdP32OgytL9e+HweYswYvFpxpGYsqR1PpogpU8UVvqAKALCVcpJd1MWcAwC2if5u8QVVKzXeKZqrKd8xmdqc75ca71DWsIl+jHlXOFft+77WPI0Z+5BzS56/OXPWFy8VIzV/sTGFbfh9H8dvW50pVnbFr2CqHa3sapw2Xrv14/FzkdoOx981duPPlzBGONf+uI5Z38Vi+XOsfsnKbmyOQ6zsfrUsdq7E6krs8SCp8lR8GXpMUu2ZvuN98SU1B15OHMmJJbnxJDemlMSV0vpS0h8zpB0Z0pbpe2x0GdpfL3w+DzFmDF6tOFIzltSOJ1PElKniiq3sfm21DwDAYnQlbiElenohVlubTAbJ4Fg+iS+h8bXjPOyP+gUAwC7gMmYAwFbhktr1Y84BANuEy5idGpdFzNWUlwdMbc73S43LcWrYRD/GXAKVq/Z9X2uexox9yLklz9+cOeuLl4qRmr/YmMI2/L6P47etTu3LmO3c8DJmtatbuyQ4bF/j8f328+K3w/GHY4/NTzjHYZ2u/fB+sFixuRQbp7+1VV2bD+3nfCMzlzF/tSx2rsTqSti2SZWn4svQY5Jqz/Qd74svqTnwcuJITizJjSe5MaUkrpTWl5L+mCHtyJC2TN9jo8vQ/nrh83mIMWPwasWRmrGkdjyZIqZMFVe4jBkAsFPapLfyZcVTaxP/AT/J0He5shJbf7wr0QUAYFu1K7v6nd3TJ8rf4VkK++3FJdrmsc25735VZJM20Y91tFn7vq/V5zFxhpxbMg85dfvqpI6n+h4rD2P4fV/fb1sdK7MVWdsOlazs2rancrVn7Ybt+z5Jajscvz8m4XHpq9MV0x9LbVt9K0uxOfa3XTTnB0+ebJ66t9/GT7Xj++D7HtbvGoPfFh+n65iU7ofxZEyZpMrDtk2qPBVHhh6TVHum73hffKlVR2rXk6nqSml9Wdc5MvQ86XtsdBnTrhnTvqkRQ2rFkZqxpHY8mSKmTBVXPvrpz9vf2W1Xdo//8ugBiOXRixj7Bwb16B/rvheH6zCXfszdts5T7efv0Hgl8xe24fd9HL8dO0f88VLhub7/1l5429UnkyqXrmND+Zip+evqtz8Wo/pdx0MWP2esOXXWrXR+upSem5qPVHlX/KHHpO9+6Ts+Zs68WnFM7XimNO5U/Qitqx2v77HRZRP9jRkzBq9WHKkZS2rHkyliylRxPT6ze6jGZwDmaspr4ac25/ulxmdPathEP8Z83idX7fu+1jyNGfuQc0uevzlz1hcvFSM1f7ExhW34fR/Hb1udmp/ZNfaOsX/3WHHVntr3txL2Sf328+LLw/GHY4/NTzjHYZ2umKn58+eEc2k/QaT5FBu7Pq+s+bAXGX0vQvnM7lfLYudKrK6EbZtUeSq+DD0mqfZM3/G++JKaAy8njuTEktx4khtTSuJKaX0p6Y8Z0o4Macv0PTa6DO2vFz6fhxgzBq9WHKkZS2rHkyliylRxhc/sAgAWLfcd4zax3rLP8ubq++wuAABL9uAzuycu7O7Krt7h1g/tL5HeRdMLnSFfcLJpc75f9ALSVkg2aRP9WEebte/7Wn0eE2fIuSXP35w564uXipHqe6w8bMPv+/p+2+qIyrwxK7s6z+h8v5Kp9rTt27Uy3yf1O7Udjt8fk9j8hHMc1umK6Y+lti2+lelcfyva1kp3OD9d7DO733j8/EMxxcf3ffB9D/vVNQa/LX7Ouo5J337OfTSmTFLlYdsmVZ6KI0OPSao903e8L77UqiO168lUdaW0vqzrHBl6nvQ9NrqMadeEz+chxozBqxVHasaS2vFkipgyVVy5ce2DdmW3TXZ/cPXHzelHyy9nWAp7MbVE2zy2ufd9Lv1bdz/W0d4UbdSIOSbGkHNLzsmp21en63jsWE5Z175td93GlFzGLLGYsfakqyzcltxjpq9O137qWKxOzq347S6W7OoLqrriSmlZ17bkHpPSfRlSx4ytK6lyWfcx6TsuNWJIjba8mu16c6tvhpw3tC0Zc65s+nypEUNqxZGasaR2PJkipkwVVz76yc/4nV1T4zMAczXltfBTm/P9UuOzJzVsoh9jPu+Tq/Z9X2uexox9yLklz9+cOeuLl4qRmr/YmMI2/L6P47etjt75F737r3d6dWt/CHVrSlZ2fRytCKhNlcXonWXrkx+bH0NqPBKOPTY/4RyHdcJ9H9Mf8237couv82Lj9HPr+fmN0Zzzmd2Hy2LnSqyuhG2bVHkqvgw9Jqn2TN/xvviSmgMvJ47kxJLceJIbU0riSml9KemPGdKODGnL9D02ugztrxc+n4cYMwavVhypGUtqx5MpYspUcYXP7AIAdoYS3zAxC+mPbV/S16VNInvaWKcpLgsDAGCbkOwCABZpTOI6d0qqUyvUMe2K7mHyqzkhCQYA7IoHX1B1+kT55QxLMeUPGm/aNo9tzn23SwBLXmxOYRP9WEebte/7Wn0eE2fIuSXzkFO3r07qeKrvsfIwht/39f221bEyJWT2GZ5YwlpyGbPF8jFTYn3xZZIaj/Ttiz9f+s5JtZfatvr+1sbv98XPTR//mV0f39o2sT5IWL9rDH5bfJyuY1K6H8aTMWWSKg/bNqnyVBwZekxS7Zm+433xpVYdqV1PpqorpfVlXefI0POk77HRZUy7Zkz7pkYMqRVHasaS2vFkipgyVVz56Kc/b77/3e8drewe/+XRAxDLoxcy9g8M6tE/1jkvEKc2l37M3bbOU+3n79B4JfMXtuH3fRy/HTtH/PEhdL7OtVsrC8fTNz7fP79dMi9D+fZK2Hk27q44VieHj9vXr5w66xb2acx9WHpuaj5S5V3xhx6Tvvul7/iYOfNqxTG145nSuFP1I7Sudry+x0aXTfQ3ZswYvFpxpGYsqR1PpogpU8X1+IKqQzU+8D5XU37we2pzvl9qfNFCDZvox5gvt8hV+76vNU9jxj7k3JLnb86c9cVLxUjNX2xMYRt+38fx21Znii+o8tSG/XSF2lYb4r+YyubAj82PwZeH8xLOR2x+wjnuO8fX98f8tvVPwjnVvr/V+O1ddHtHXbd9+IKqr5aVPC8kbNukylPxZegxSbVn+o73xZfUHHg5cSQnluTGk9yYUhJXSutLSX/MkHZkSFum77HRZWh/vfD5PMSYMXi14kjNWFI7nkwRU6aKK3xBFQBg8bpWE5TkTv2O8txp/OGbAgAALAXJLgBg8dqV4oJvSvaJcOm5JdpV7Am+MEoJvn+nPNwHAGAXPPiCqhMXdvcyZrusbYl0yYheqG3jt2/O+X7RC1+9SNWlF5u0iX6so83a932tPo+JM+Tckudvzpz1xUvFSPU9Vh624fd9fb9tdURl3pjLmMXO1eW6iu231aa/jfUl7Gtqu63fsy/hHIfzFZ7j66fajvXZzrNjdsmyjtt4bW7Fz2+MfUHVNx4//+B836aVxdrW2KwsNYbUtqTmQPwx6dvvm28ZUyap8rBtkypPxZGhxyTVnuk73hdfatWR2vVkqrpSWl/WdY4MPU/6HhtdxrRrwufzEGPG4NWKIzVjSe14MkVMmSqu3Lj2QXsZc5vs/uDqj5vTj5Zfu78U/g/+0mzz2Obe97n0b939WEd7U7RRI+aYGEPOLTknp25fna7jsWM5ZV37tt11G1PymV0fo68tfytdZSb3mOmr07Vfst11K347hyW7+jbmrvhSWta1LbnHpHRfhtQxY+tKqlzWfUz6jkuNGFKjLa9mu97c6psh5w1tS8acK5s+X2rEkFpxpGYsqR1PpogpU8WVj37ys+bVV1/lC6qkxgfe52rKD35Pbc73S40vWqhhE/0Y8+UWuWrf97XmaczYh5xb8vzNmbO+eKkYqfmLjSlsw+/7OH7b6uidf9G7/3qnV7f2h1C3piTZFZ1rX8pkKwu2QmB9sLFbX8SO+XH67XBewvmIzU84x13zJb6+P+Zjx/ps5/lbG6/Y/Bo/vzGac76g6uGykueFhG2bVHkqvgw9Jqn2TN/xvviSmgMvJ47kxJLceJIbU0riSml9KemPGdKODGnL9D02ugztrxc+n4cYMwavVhypGUtqx5MpYspUcYUvqAIAYAT9ce5LEqfSviGwuuxLfVBflHgqiS2xqf4DALAOJLsAgEWzFV6/kmlI9gAAWC6SXQDAIvUlslNcNjUHulww9hmoISu/AABsM5JdAMAihZ/1HUqXC9uqsN/eFqnkFwCApWu/oOqHP/xhs7c3/KvAAQBYl9wvqEI9zDkAYJvo7xbfxrxS49vd5mrKbzmb2pzvlxrfKljDJvox5pscc9W+72vN05ixDzm35PmbM2d98VIxUvMXG1PYht/3cfy21Zni25jtfP/tw2pLbetW38qsMYd90JhsPlL9Fj9n4XzE5iec4675El/fH/PbVsfa0+qzjc/f2iXM9pu7tp2Db2P+alnsXInVlbBtkypPxZehxyTVnuk73hdfUnPg5cSRnFiSG09yY0pJXCmtLyX9MUPakSFtmb7HRpeh/fXC5/MQY8bg1YojNWNJ7XgyRUyZKq7wbcwAgJ3TJr1BglZL7Uuc9eJwysuP1VcubwYALBnJLgBg0fyqbkjJnpJKAACwPCS7AIBF8pc+K+Gt8WVVm6T+26Vetu1Xf5XQt6vLwbcuh/sAAOwKkl0AwGK1K7cVLy3eZpYMAwCwK0h2AQBYoK4V3TbxZbUXALBw7bcx/+Dqj5vTj5Z/K9tS2Ld1LtE2j23ufZ9L/zbRj6nbnCJ+rZhj4pSeW1I/p25fna7jqWNhecm+bYdlYuUxpT+D42PFtv2tdJV1bcuU+33bXWW6ldR2Hz/nPq74NmK3vs7Ybck9Jn37UrtMxtY16z4mfcdlnXWkdj2Zqq6U1pd1nSPrPs9s+nypEUNqxZGasaR2PJkipkwVVz74+Ebz/e9+7yjZffP2u82JC7v700P66Ylb3xn+Vehzpq9517v323jp2pzvF62YaGVEX5e+SZvoxzoeU7Xv+1rzNGbsQ84tOSdnzvripWKk5i8WLyzz+z6O37Y62rdbY38IdWtKkl3/R1Qx9JM7Fj9sU7eibd8v9d3mJpyL1PgkNm/hHOfOl/hzY/2JzWN468XmNsX/9FBXG36uYvPny3K2xY+765j07Yfnx+6jsI7EymLnSqyulJan4svQY5Jqz/Qd74svfTEkJ47kxJLceJIbU0riSml9KemPGdKODGnLjDl3aH+98Pk8xJgxeLXiSM1YUjueTBFTpoorn/7o6pfJLr+zO/53u+Zqyt+vmtqc75cavxdXwyb6MeY3+nLVvu9rzdOYsQ85t+T5mzNnffFSMVLzFxtT2Ibf93H8ttXRiyHRCyL98dNtjWTXYolt61bsxZe1rT+4Yb/Udz83fjs1PonNWzjHufMlsT50zWPIz6tXmuyqDbUZa0uPBetbbP78YyZnW/y4u45J334437H7KGxDYmWxcyVWV8K2Tao8FV+GHpNUe6bveF98Sc2BlxNHcmJJbjzJjSklcaW0vpT0xwxpR4a0ZfoeG12G9tcLn89DjBmDVyuO1IwltePJFDFlqrjC7+wCABavL5Frk79Ecrg0mosp3j0HAGCuSHYBAIulld1wJXPO2oS04B1uJeq2Sp06t13RDZLctu7qPAAAlopkFwCABYklt8Ynx9K38g0AwDYj2QUA7AwlgXY57zat+Hr67Jv/4q2UrqQXAIBdQLILAFg0rWT2rWBa8qvLgOey2ulXYXMT3BIab+2YAADMyYOfHjp9ovxb2Zbi1Hu325+jWKJtHtuc+24rQpv+zNsm+rGONmvf97X6PCbOkHNL5iGnbl+d1PFU32PlYQy/7+v7batjZUo2LQmLJZ5DfnoojJlK8mL98WWS2g7nI9wXX1+69v35Odt2btdtOK/aj81xSHN+8OTJ5ql7+w/FtPZNrB8S1s8dk/g4XcekdD+MJ2PKJFUetm1S5ak4MvSYpNozfcf74kutOlK7nkxVV0rry7rOkaHnSd9jo8uYds2Y9k2NGFIrjtSMJbXjyRQxZaq48tFPf97+9FC7snv8l0cPQCyPXsjYPzCoR/9Y57xAnNpc+jF32zpPtZ+/Q+OVzF/Yht/3cfx27Bzxx8eI9d3aD29LpcYnOTHDsaf4WH1xLWZfbB0vHXNubMmps25hn4be71J6bmo+UuVd8Ycek777pe/4mDnzasUxteOZ0rhT9SO0rna8vsdGl030N2bMGLxacaRmLKkdT6aIKVPF9fid3UM1frdrrqb8/aqpzfl+qfF7cTVsoh9jfqMvV+37vtY8jRn7kHNLnr85c9YXLxUjNX+xMYVt+H0fx29bHfsJIP3h0wsj3erFkf4Y+hdJQ1d27d1jvZN86ztn2/bVrr9Vf2we/Pj8OPw8pcYnsXkL5zicL3/ct5+aO1/HzrWYqqPb/bduPhivzauX8wKU39n9alnsXInVlbBtkypPxZehxyTVnuk73hdfUnPg5cSRnFiSG09yY0pJXCmtLyX9MUPakSFtmb7HRpeh/fXC5/MQY8bg1YojNWNJ7XgyRUyZKq7wO7sAACyEXkj6xD71wsHeSAAAYBeQ7AIAdopPCodoL7s6TC7noE1eE9+43JX0ytDxAwCwLUh2AQCLZwlueAlvTUosSSABAJgPkl0AwGLlJp8+US1ZuW0/Axt8bnVq/ieJcg05BwCAbUeyCwBYLCWuXQlv12qs/fbuNvOf5TV8bhcAsCtIdgEAAAAAi9P+9NCbt99tTlzY3Z8esp9lWCJ9zbvewU99gcmczfl+0SWBWh3R16Vv0ib6sY42a9/3tfo8Js6Qc0uevzlz1hcvFSPV91h52Ibf9/X9ttURlXladQ1XZ0t/eshieGrPfoLIxm23YX98HzWO1JjEz2FsfsI57tpPzVfX3GnbjimWfm7Jl2surCy1oh2jOT948mTzjcfPP4jV1a6fR82TleWMyW9Lak7EH5O+fd8nCePJmDJJlYdtm1R5Ko4MPSap9kzf8b74UquO1K4nU9WV0vqyrnNk6HnS99joMqZdEz6fhxgzBq9WHKkZS2rHkyliylRx5ca1D9qfHmqT3R9c/XFz+tHy39taitgLoaXY5rHNve9z6d+6+7GO9qZoo0bMMTGGnFtyTk7dvjpdx2PHcsq69m276zamJNn1fMy+dnUrXWXhttTcL9nuKtOtpLZzWLL71L39r8T2t1Ja1rUtucekdF+G1DFj60qqXNZ9TPqOS40YUqMtr2a73tzqmyHnDW1Lxpwrmz5fasSQWnGkZiypHU+miClTxZWPfvKz5tVXXz1Kdl8/dqU5eW53V3Zr/Ej1XE35Y81Tm/P9UuPH0WvYRD/G/CB9rtr3fa15GjP2IeeWPH9z5qwvXipGav5iYwrb8Ps+jt+2OnrnX/Tuv97p1a39IdStGbKya6uZothiqwxaLdC4bfzWH7E++rH6MYVz4OcwNm/hHHft+9ipbatvZXp3XG2qf/7WxqzVbD8Xfl67aM4/fXG/eeaLxx6KbfeZ8X3y8xT2s2tMfltScyL+mPTt+z5J7D4K25BYWcnzQsK2Tao8FV+GHpNUe6bveF98Sc2BlxNHcmJJbjzJjSklcaW0vpT0xwxpR4a0ZfoeG12G9tcLn89DjBmDVyuO1IwltePJFDFlqrhy651r7coun9kFACyWJcuWQHcld229wxdkc9H2eYJLuwAA2BUkuwCAnRYmue2qcrBiua00DlslJ3EGAOwakl0AAApMlQwr4VbiPTVb5QYAYOlIdgEAO0UrnPaZ1S76DFHuZ1rXqWuV1lZyY3TMkumc8QMAsO1IdgEAi2eX8u6KrqQXAIBdQbILANgZ7edzV5cgT3U58iZ0rfYCALCrSHYBAItW41Lk1KXPuZdEb5rmgGQYALBrSHYBAIvWruZmJKR+pXduCWxs5XboF1q1iS+XOAMAdsAjly9fvv/m7XebExfOrIp2z/5bN5tb3xn+I9dzph/w1ouabXxHf873i14Q68Wnfgh7kzbRj3W0Wfu+r9XnMXGGnFvy/M2Zs754qRipvsfKwzb8vq/vt62OqMxTYqaEzq/OXr9+vb29ePFie9vHzg8TQ7Wp9lK36pvNSarv4Rz4OQyPSTjHXfX93MW2xeqHZTYG0fap9243d5873ZZpLrStslya84MnTzbfePz8g9ix9tQXG5Pvc8k8hvPQNUdd8ynhvu+ThPFkTJmkysO2Tao8FUeGHpNUe6bveF98qVVHateTqepKaX1Z1zky9Dzpe2x0GdOuCZ/PQ4wZg1crjtSMJbXjyRQxZaq4cuPaB81rL79ylOz+4OqPm9OPnlod2j2xF0FLsc1jm3vf59K/dfdjHe1N0UaNmGNiDDm35Jycun11uo7HjuWUde3bdtdtTGmyKz5ebNvfSm6ZxOqYMfsl2zm34rdLWLL71L39znaktKxrW3KPSem+DKljxtaVVLms+5j0HZcaMaRGW17Ndr251TdDzhvalow5VzZ9vtSIIbXiSM1YUjueTBFTpoorH/3kZ82rr756lOy+fuxKc/Lc7q7snn/jw+bGSxdWe8ty9u2b7bto+gmNbTPn+0WXD+rdqJsvjHuHcaxN9GPv2t329s7T071BVvu+rzVPY8Y+5NyS52/OnPXFS8VIzV9sTGEbft/H8dtWR+/8i9791zu9urU/hLo1Q1Z2FU8rmdpWW7ZCoD7omKd3mK1vNie+v37c4dykxmvCOfb7XbFi22L1wzk0tpKi8Wo1V2wexM9rF835py/uN8988VgbT+3G2tOc2Jh8n63Mz13Otvg56jomffu+TxK7j8I2JFYWO1didSVs26TKU/Fl6DFJtWf6jvfFl9QceDlxJCeW5MaT3JhSEldK60tJf8yQdmRIW6bvsdFlaH+98Pk8xJgxeLXiSM1YUjueTBFTpoort9651q7s8pldAMCiWeL8YDtI0LooKdSLNE/JsMXbBCWo4QsDK2vfKFj1b4rLwgAA2CYkuwCARdtkYjpGLKkdQsm9reQCALBLSHYBADvNr4TWTIyVqOZeJjyVNmF2K7waH4kvAGBXkOwCALCFtGIbft64S5vQF9QHAGDbkewCAHZC+/nb1cptu5347G5sRXYOq7Q1LWksAACkkOwCAHbGQ19WtX+MpA8AgAUj2QUALNoSElqNIefLqqxebn0AAJaMZBcAsGi6ZHnKhHfuybT/bC+f2wUA7BKSXQAAEtrLnjt+l7fm6mnpF04Z/Q5w7BuWU+UAAOwKkl0AwE7zl/3OfpV2RALbjtEl03MfKwAAYz1y+fLl+z+4+uPm9KOnVkW7R3/wl/ru9zaPbe59n0v/NtGPqducIn6tmGPilJ5bUj+nbl+druOpY2F5yb5th2Vi5THXr19vby9evNjelvDthW3FbqWrrGtbxuyXbOfcit8u4efcx5VYW6k6Y7cl95j07UvtMhlb16z7mPQdl3XWkdr1ZKq6Ulpf1nWOrPs8s+nzpUYMqRVHasaS2vFkipgyVVz54OMbzfe/+72jZPfN2+82Jy6cWR3aPftv3Wxufefsam9Z9t6/076Tr28d3TZzvl90uaE++3bn2b1VyWZsoh/reEzVvu9rzdOYsQ85t+ScnDnri5eKkZq/WLywzO/7OH7b6mjfbo39IdStKU127fzwD6pv89R7t9ux2xyEfVL//fyktsPxh3Patd91rm3H5k2szOrp9u5zpx/MpeppjH4O/Jz20Zx/+uJ+88wXj7WxbF7CWz9PfjyxspxtsXOl65j07Yfnxx7bYR2JlZU8L6S0PBVfhh6TVHum73hffOmLITlxJCeW5MaT3JhSEldK60tJf8yQdmRIW2bMuUP764XP5yHGjMGrFUdqxpLa8WSKmDJVXPn0R1e/THZfP3alOXlud5Pd82982Nx46cJqb1nOvn2z/YdlG7+Vc873iy4l1BP05gvj/tEdaxP92Lt2t7298/R0V4PUvu9rzdOYsQ85t+T5mzNnffFSMVLzFxtT2Ibf93H8ttXRiyHRCyL98dNtjWRXLMlTXCV9SgTFXnzpRZTGbnMQ9klj9POT2g7HH85p1344n7E2YvMmKtN27FZjFhu3xixDk10f3+bH+Hnyc2Flfow525I7R9K3H94/scd22IbEykqeFxK2bVLlqfgy9Jik2jN9x/viS2oOvJw4khNLcuNJbkwpiSul9aWkP2ZIOzKkLdP32OgytL9e+HweYswYvFpxpGYsqR1PpogpU8WVW+9ca157+RU+swsAQA4lzHrBtm3aNw9W75pbogsAwC4g2QUAoMMmEkQl1eFl1ylaXbXVWy9VHisDAGCJSHYBADtHK50+ibVV23D1dorPEW2CEl9LnlndBQDsCpJdAMBO0IrmNiZ6Jau8AADgSyS7AICd0q7err5YqU2Agy9ZGqN2vFDq0mQAAPBVJLsAgJ1Qsqo7ddI6BUuESYgBADhCsgsAwAaMvTxZPx2U83MNbb3VZ4/bbRJhAMCOINkFAKCQ/yIrvz1X4WpvyW/sAgCwrUh2AQBYIF22Hfs2aZXzhVcAgF1AsgsA2Ala2bQVTSWBfnXTf9Y19VndrmOblEpqAQDYdSS7AIDFaxPV1RdU+aRVSWLXF1fpM7Fc8gsAwHZ65PLly/ffvP1uc/rEqVXR7jn13u3m7nOnV3vLss1jm3Pf/YvmTdpEP9bRZu37vlafx8QZcm7JPOTU7auTOp7qe6w8jOH3fX2/bXWsTMmlXWYbSzSvX7/e3l68eLG9zaWYYey+y3lj/fNlkhqj+GPSVdfv52xbLLu1Y0bjs+PhfNpc5NKcHzx5snnq3n5nm7F+SVg/d4zi43Qdk9L9MJ6MKZNUedi2SZWn4sjQY5Jqz/Qd74svtepI7XoyVV0prS/rOkeGnid9j40uY9o1Y9o3NWJIrThSM5bUjidTxJSp4spHP/158/3vfu9oZff4L48egFgevaCxf2BQj/6xLnmhOJW59GPutnWeaj9/h8Yrmb+wDb/v4/jt2Dnij4+lGLExpMbWN2bf57D/ubra6GvfS7XfVZ4bO2Qxc8acU2fdwj6VzHOo9NzUfKTKhz4++vrVd7/0HR8zZ16tOKZ2PFMad6p+hNbVjtf32Oiyif7GjBmDVyuO1IwltePJFDFlqrheu7L7+rErzclzZ1ZFu+f8Gx82N166sNpblrNv32zuPLuX9fMUczPn+0XfvLr3/p3m5gtnVyWbsYl+7F27297eeXq6q0Fq3/e15mnM2IecW/L8zZmzvnipGKn5i40pbMPv+zh+2+rYpcX6w6cXRrrViyP9MfQvkoas7CqGKI69i6x3lG9952zbD7Xn6fJm65/Nix+vH5ffDucknFO/H85rKk6qXYtlZYrlb/ffuvlgfOLnVHOg8efSnH/64n7zzBePPdRG+Blm9THsl+9ralypbfFz1nVM+vZ9nyT22A7bkFhZyfNCwrZNqjwVX4Yek1R7pu94X3xJzYGXE0dyYkluPMmNKSVxpbS+lPTHDGlHhrRl+h4bXYb21wufz0OMGYNXK47UjCW148kUMWWquHLrnWvNay+/wmd2AQC7w7+L3G5nfnZ3bvTC0RL4IbZprAAADEWyCwDYKbbCGbNtSa9opXaKd8UBANh2JLsAgJ3gL4U2Sm5j5THbmAgDALDLSHYBAOjQXu78yea/WGUIXaZtn0dWoh5+NhkAgCUj2QUAoFB7KXTw5UxzEbusuS0j0QUA7BiSXQAAAkoWcy9vnguf5Ka+wEqruyrftrEBADAEyS4AYGd0fTnVUHNe5QUAYJeR7AIAdo5d1vvgp4cqreSGX2JV+/O+tnrrP4sLAADiSHYBAIunJLFNPCNf0uQT0m27fHns7+0CALBkJLsAAMxYm6DvH1vtDRdL9AEAWDKSXQAAFiJc6bVLqln9BQDsIpJdAMDOaD+n6z5T20fJo322d86XOH8lyU18prdk7AAAbDuSXQDATgq/TCq0ydXQ9pLjCpcuAwCwy0h2AQA7wa/KKpENfy6oLVt9UVWfvkQZAABs3iOXL1++/8Mf/rDZ29tbFQEAMF/Xr19vby9evNjeYnrMOQBgm+jv1quvvnqU7L5+7Epz8tyZ1aHdc/6ND5sbL11Y7S3L2bdvNnee3Ws/a7Zt5ny/aPVn7/07zc0Xzq5KNmMT/di7dre9vfP0qfZ2CrXv+1rzNGbsQ84tef7mzFlfvFSM1PzFxhS24fd9HL9tdWyltb2Ed/XZWvvJIL8qOzTxCi9Ltjbss63aVj/UL39r/dI4bY58//08hHMVzoef4666qW07P5wzrTT7ftuYTr13u7n1ncM+HpZpDu8+d/rBvJbQnH/64n7zzBePPWjDt2/8HMX67ecqZ1v8nHUdk7593ycJ7wMJ25BYWexcidWVsG2TKk/Fl6HHJNWe6TveF19Sc+DlxJGcWJIbT3JjSklcKa0vJf0xQ9qRIW2ZvsdGl6H99cLn8xBjxuDViiM1Y0nteDJFTJkqrtx651rz2suvcBkzAABzoAS06w++Xiz2fY5YyWf4xVRhWWmiCwDAtiLZBQBghDl8fjeW5Maon30JMwAAS0GyCwDYGUoIbWVTSWrOKuc2fhmV+qt+AwCwy0h2AQA7QYmuJa3tdvB507AsVmcT+i5vBgAAcSS7AICdkFqdLVm5Lfl5ojnR+Lh8GQCwa0h2AQBw5rKiO5bGQIILANhlJLsAAGyZkkub28/vHibw0p632gYAYOlIdgEAO6W9FDnzsuW5axNZ90VUtt8mtYkvqFrK2AEA6EOyCwDYOe2lyodJX5v4DrhkWauqOd/k3EXtplZZYyu3XfUBAMBXkewCAHZGV4IaflFVyRdXmRpJ8BC2ogsAAL5EsgsA2Gl22W/KphLYsfxKcJsMsyoMANgxJLsAADhDVnTnrL0kmkQXALCDSHYBAFiINrFNfEuzEnh9RnkbV6kBABiCZBcAsFO0yjl05bY9d8AXWg11/JODzt/KjSW3fecAALArSHYBADtHSatd3js2eV33Z3pJZgEAyEOyCwDYCUpI258aWtDncU1shRcAgF1HsgsA2Hm2UrrOFdp14tuYAQC76JHLly/f/+EPf9js7e2tigAAmK/r16+3txcvXmxvMT3mHACwTfR369VXXz1Kdl8/dqU5ee7M6tDuOf/Gh82Nly6s9pbl7Ns3mzvP7m3l5W1zvl/0mbm99+80N184uyrZjE30Y+/a3fb2ztOn2tsp1L7va83TmLEPObfk+ZszZ33xUjFS8xcbU9iG3/dx/LbVsc/O2iqkbu3SY7/iOibxUiwf++5zp9ty7asP+2/dbOfA5sJuwz5qzH5sfu78djgf/pifv3COrV5snsTKrJ6/vfWds+1xsbF6Q1avNeefvrjfPPPFY20fFN/Ph9FYrC+x+fFjztkWO1e6jknffnh/xB7bYRsSK4udK7G6ErZtUuWp+DL0mKTaM33H++JLag68nDiSE0ty40luTCmJK6X1paQ/Zkg7MqQt0/fY6DK0v174fB5izBi8WnGkZiypHU+miClTxZVb71xrXnv5FS5jBgDsriX9pq5eTLafST5MQLlkGQAAPrMLANghflXTEsMSc0qOLbkFAABxJLsAgJ3RJrgzX8ntS2LDlducpFdJPqu9AIBdQ7ILANh57WdbD5PINhk+TB7nYswlyW2Cu39stQcAwO4h2QUAIGFuyW+pMFke8uVUAABsK5JdAMBOUfLXl/TVSnJtxXgd+laBdfl23+XOAAAsCckuAGBn6TLfnNXOdSatKe1lyRk/z6CklsuXAQAg2QUA7JA2aV19QVXNBNavBG/7pc8AACwFyS4AYGfM/ZuYS9hly1y+DABAHMkuAGDn2e/nlqz21lwZrk39IsEFAOw6kl0AADLpM7Ob/kbjks/kWgIvfBMzAGDXkOwCAHZO+7naBV3SDAAAvopkFwCwk9rLkFefZw0vR7ZLlOd8qXLIVnzbb23m25gBACDZBQDsliGX89pnetfBkuxa/KXMAADsEpJdAABmylZrAQBAOZJdAMDO85f/rmsFt4R+tzf8duWuRNhWh9sxsaoLANhRJLsAAGzYmEuXc1Z/VUfJMt/IDADYJSS7AICdo8Ryjiu4OdrV2jP8hi4AAH1IdgEAO8V+dshf5ht+47Jdztx1WfPcLnm2VdvwcmcAAHbVI5cvX77/5u13mxMXzqyKds/+WzebW985u9pblr3377Qv5PoucZujOd8vemGsF7l3nt1blWzGJvqxjjZr3/e1+jwmzpBzS56/OXPWFy8VI9X3WHnYht/39f221RGVeUrgwstvr1+/3t5evHixvS3lk0HFvfvc6bZdv63+xG5j/fVlGmdqzOLnODUfXXOjMothx1Su21Pv3f5K/21MOjbmMmbN+cGTJ5tvPH7+oTbFtxfrn+bBynLG7LclNWfij0nfvu+ThPFkTJmkysO2Tao8FUeGHpNUe6bveF98qVVHateTqepKaX1Z1zky9Dzpe2x0GdOuCZ/PQ4wZg1crjtSMJbXjyRQxZaq4cuPaB81rL79ylOz+4OqPm9OPnlod2j3647/Ud8K3eWxz7/tc+rfufqyjvSnaqBFzTIwh55ack1O3r07X8dixnLKufdvuuo0Zm+wa30ZfP2K30lUWbktOvb7tnFtJbQ9hye5T9/aTbepWSsu6tiX3mJTuy5A6ZmxdSZXLuo9J33GpEUNqtOXVbNebW30z5LyhbcmYc2XT50uNGFIrjtSMJbXjyRQxZaq48tFPfta8+uqrR8nu68euNCfP7e7K7vk3PmxuvHRhtbcsZ9++2b6Lto2f75rz/aJvRtW7UTdfGPcO41ib6Mfetbvt7Z2np3uDrPZ9X2uexox9yLklz9+cOeuLl4qRmr/YmMI2/L6P47etjt75F737r3d6dWt/CHVraq3sqg1bDRVbdbDVA/VP+9ZPmx/rr9gxPxd+zOEc+Tn2x1LbsbbCflg/fb/F5tDYeIfQnH/64n7zzBePPdSm3WdGfQ77p3mwspwx+21JzZn4Y9K37/skscd22IbEykqeFxK2bVLlqfgy9Jik2jN9x/viS2oOvJw4khNLcuNJbkwpiSul9aWkP2ZIOzKkLdP32OgytL9e+HweYswYvFpxpGYsqR1PpogpU8WVW+9ca1d2+cwuAGDnhIngJrRJ/YhLt/QGgF4g2G2fTY8XAIB1I9kFAOw0JZxzTQQtkdUKqhJ0AACQj2QXALBT/CXRuqQ5vBR3m5EUAwDwJZJdAMBOaRPcnpVcf3mwT45ztJdIT5RA63NvsS/zSJVLOw4SYADADiLZBQAAAAAsDskuAACHbEW2Xfn9ZPjP9Iw19ourxFajbUWXL6cCAOwikl0AwM5RElh6ebIlwZYUD7nEubauy5cBANh1JLsAgJ3SJqtbvtJJkgsAQD+SXQDATvGJrl3mu+kV2rHsW5hrXAINAMBSkOwCABCx6c/u1qDklxVgAMCuItkFAOCQVkRjlzfnJL2pc2uxFVt+RxcAgHwkuwCAndQmsRMmqGMN/Vzug2+UVoK8kMu0AQAYgmQXAACn/ezrYcK4TrZyW4qVXgAA0kh2AQA7xa9y2pc6tSuhmQnu1Jcs5yDJBQCgH8kuAGCnKLFd6mW9GpdfIfaXMgMAsGtIdgEAyDDk8uZ1rQIPvQwaAIAlI9kFACAiJ7ltL3+u/PNE7ersmeE/F2SXOLdxWNUFAOwwkl0AAA5pZdQuA/arsUNWdOdEY1nypdsAAKSQ7AIAdlKbxK7hEuMabLWXy5UBAMhHsgsA2Dn+d2hZ8QQAYJlIdgEAOyWW3Na8VHldX0olfqVX/VcSDwAAjpDsAgCQYZ1JrNgXTcWElzPbZ41DtnoNAMAueuTy5cv337z9bnPiwplV0e7Zf+tmc+s7Z1d7y7L3/p32hU7sRdDczfl+0YtQvYi88+zeqmQzNtGPdbRZ+76v1ecxcYacW/L8zZmzvnipGKm+x8rDNvy+r++3rY6ozFMSF3650vXr19vbixcvtrdD+BVQxb773Om2bb+tPsVu1Webq7Dv4djCOfJz7OfGb1sdf27Ynsr97an3bj/Ub+2Hq7x+Dktpzg+ePNl84/HzD7Urvi+xvqbGlLMtfs66jknfvu+ThPFkTJmkysO2Tao8FUeGHpNUe6bveF98qVVHateTqepKaX1Z1zky9Dzpe2x0GdOuCZ/PQ4wZg1crjtSMJbXjyRQxZaq4cuPaB81rL79ylOz+4OqPm9OPnlod2j32YmqJtnlsc+/7XPq37n6so70p2qgRc0yMIeeWnJNTt69O1/HYsZyyrn3b7rqNqZHsSthGVx+0LbHj4bFa211lXbfityXcL2XJ7lP39pPt6lZKy7q2JfeYlO7LkDpmbF1Jlcu6j0nfcakRQ2q05dVs15tbfTPkvKFtyZhzZdPnS40YUiuO1IwltePJFDFlqrjy0U9+1rz66qtHye7rx640J8/t7sru+Tc+bG68dGG1tyxn377Zvos25jcbN2XO94t+V1PvRt18Ydw7jGNtoh971+62t3eenu4Nstr3fa15GjP2IeeWPH9z5qwvXipGav5iYwrb8Ps+jt+2OnrnX/Tuv97p1a39IdStqbWy69vQqqjYyoOtIKiP2ve36rPNlR+flaXGKX6O/bmxOH5+w/bCfvn+io3N83NYSnP+6Yv7zTNfPPZQu3afmVhfU2PK2RY/Z13HpG/f90lij+2wDYmVxc6VWF0J2zap8lR8GXpMUu2ZvuN98SU1B15OHMmJJbnxJDemlMSV0vpS0h8zpB0Z0pbpe2x0GdpfL3w+DzFmDF6tOFIzltSOJ1PElKniyq13rrUru3xmFwCwkywZtHeVw+Rw24SJJwAAu45kFwCAgdoV1DUmmVqd9e+Ah/vqj9ceD8oAANgVJLsAAMyYLv8LP9PkL0mOHQcAACS7AABspdRnnCwRthXdbb88GwCAoUh2AQA7ScmgXyEVf1mykkl/PNyvSXEVn1VaAADqIdkFAOycNqntWPFUwqnEEwAAbC+SXQDAzvGJrl3um1q1ja3okgwDADB/JLsAAGyAXbqcooT8YP/Yau+rwkuew/ra55JoAMAuI9kFAGALpD7Pq88Y2+p0TJtUdxwHAGCpSHYBADurvRzZX9K8f+yh/W2jxNfG5BPcbR4TAABDkewCAJDQJo6Zn80tqVsiXLlNrfACAICHkewCAHaSfemUEsmhK5/bvhIMAMCSkewCAHCoXZm139hVArza9nJWb6f8Pd4S4aXMAADsGpJdAAB6THWJ8hjh5c3tF1F1fHszAAC7hmQXAICFsATYvoFZq7tK1Oew0gwAwLqR7AIAdpYlhKXa8yKXOU8pXMk17eXKrOgCAPAVJLsAAKwoadzkKqhPaNvV2TPlv6sLAACOkOwCAHaOEsn2c7irL3EKE1z7luVNrOACAIA6SHYBADi0tMTWknUAAHYVyS4AADOW85lcJelaqQYAAF8i2QUA7Kx2Nfcwmexjq77bsPqr8VjimzM2AACWimQXAIBAbkKrL5Aa+4VW+v3eIauytuLbfpHVauW3LePSZQAAWiS7AAA4OYmnfYEVAACYL5JdAMDOsoQ1ddlvSVIbu8S5xsovAAAYhmQXAICAXR48J+0lyqvk2y5bNvZ5Yq+9vJlLmgEAO4xkFwCABWmTYZJcAACaRy5fvnz/zdvvNqdPnFoV7Z5T791u7j53erW3LNs8tjn33S5r3PQLyk30Yx1t1r7va/V5TJwh55bMQ07dvjqp46m+x8rDGH7f1/fbVsfKtCJplxXHVlevX7/e3l68eLG9HUptWFthm+qP+mVlKbH++zLp247Ni/Gxum593/222PjG0JwfPHmyeere/kNt5/RXwvp+rF3b4uN0HZPS/TCejCmTVHnYtkmVp+LI0GOSas/0He+LL7XqSO16MlVdKa0v6zpHhp4nfY+NLmPaNWPaNzViSK04UjOW1I4nU8SUqeLKRz/9efP9737vaGX3+C+PHoBYHr3IsX9gUI/+sR774rGGufRj7rZ1nmo/f4fGK5m/sA2/7+P47dg54o9PQfEV2259Wdjn1G0NsVixMuuX718fG18tJX0o6ee6hH0acz+Wnpuaj1R5V/yhx6Tvfuk7PmbOvFpxTO14pjTuVP0Irasdr++x0WUT/Y0ZMwavVhypGUtqx5MpYspUcb12Zff1Y1eak+fOrIp2z/k3PmxuvHRhtbcsZ9++2dx5dq/9kpRtM+f7RT8Vsvf+nebmC2dXJZuxiX7sXbvb3t55erqrQWrf97XmaczYh5xb8vzNmbO+eKkYqfmLjSlsw+/7OH7b6tiXO+kPn14Y6VYvjvTH0L9IqrWyq3eTfRvWpm5F7zjf+s7Ztp/qX+xW/bd58/Ph57Jv28+FxdBncsP4Nk/W/v5bNx/0z/fZ3iXXtsYlY19kas4/fXG/eeaLxx7qQ/iFXH7s/r63Mj9HOdvi56zrmPTth4/P2GM7bENiZSXPCwnbNqnyVHwZekxS7Zm+433xJTUHXk4cyYklufEkN6aUxJXS+lLSHzOkHRnSlul7bHQZ2l8vfD4PMWYMXq04UjOW1I4nU8SUqeLKrXeuNa+9/Aqf2QUA7Cb/brIli5teeWiT7eDLp4ZQHEt0AQDYVSS7AABEjFkV1blayZiC+jPFu+AAACwNyS4AAIWUbFoSPGVi63UluakV4fac1ao1AAC7hmQXALDT2mTVXdK8rfT5WRuLT3CXMDYAAIYg2QUAwNEK6dwTRK0kt4ntYYLLyi0AAHEkuwCAnWWXIith7Epw/WXLKduQJAMAsEtIdgEAWLHV0pScpHcOwkuZAQDYRSS7AAB0WNcXUHl2ebJdrgwAAMqR7AIAENEmmx2rvJuQSn7bb11efRuzfQOzVndVdxtWogEAmALJLgBgp/V9Xndqtb5kii+rAgDgYSS7AADMXLiiS2ILAEA/kl0AwE7S5b3t53FXX+Zkl/vqcuCcS3/bcwd+lrfWZ3Hbvq8uXwYAAA8j2QUAYKW9pDnxOd1Uctt1Tqn287ZnKiXBrPwCAHYcyS4AABGp380ds6K7TiS8AIBdR7ILANhp7cpsJKk1NVdup6C+2SXRGoe/PLprXAAALB3JLgAAMxV+EVW477GSCwDAw0h2AQAItJcqz3g117Sf8eULqgAAiCLZBQDsNLvU118KvGntKq1LYrtWdGPaJJhVXgDAjiPZBQCgAn2L8oOfLzpMNKdcGQ6TYQAA8FUkuwAAZJg6gR3Kr/ryuV0AAL5EsgsA2GlKDm1F1tPKqX0mNnZp89yS3/DS5Tlcjg0AwCaR7AIAUCBMclPJMAAA2CySXQDAzmoTVxJVAAAWiWQXALCzfKLrE9+5XaJs1D/7Yir1z75B2lOdWDkAALuGZBcAgBUlubHP726KT249+ywxAABII9kFACDD1J/NPf7JQXJFNpX0dgm/sAoAgF1DsgsA2HlKMmOJbFs+w8uZPZ8It9suwZ0yOQcAYO5IdgEA6KBEMnZpc+5Kb5swf5K+NNonq6ZdlT2T/7nb1Od3AQDYZSS7AICdZonsQ19Q1ZHI5ia5m9Imz1y+DAAAyS4AAN6cL132K77qI0ktAABpj1y+fPn+m7ffbU6fOLUq2j2n3rvd3H3u9GpvWbZ5bHPu+4PVnw2/0NxEP9bRZu37vlafx8QZcm7JPOTU7auTOp7qe6w8jOH3fX2/bXWsTAmdXZIbu3z4+vXr7e3Fixfb2zHUjrXh2/Tb6pv6aGUpsbH4Muk6HiuL3Yb9CPvrt2vRnB88ebJ56t7+Q/2xPptY3yWsr3o52+LjdB2T0v0wnowpk1R52LZJlafiyNBjkmrP9B3viy+16kjtejJVXSmtL+s6R4aeJ32PjS5j2jVj2jc1YkitOFIzltSOJ1PElKniykc//Xnz/e9+72hl9/gvjx6AWB696LF/YFCP/rGu+UJyqLn0Y+62dZ5qP3+HxiuZv7ANv+/j+O3YOeKPTyVsQ/vhdtj/1K34+iZWFjvHlxk7FuuHFyubQqw/KTl11i3s05h5Kz03NR+p8q74Q49J3/3Sd3zMnHm14pja8Uxp3Kn6EVpXO17fY6PLJvobM2YMXq04UjOW1I4nU8SUqeJ67cru68euNCfPnVkV7Z7zb3zY3HjpwmpvWc6+fbO58+xe0RedzMWc7xd92cze+3eamy+cXZVsxib6sXftbnt75+nprgapfd/XmqcxYx9ybsnzN2fO+uKlYqTmLzamsA2/7+P4batjlw7rD59eGOlWL470x9C/SJpiZVfvLPs/uNa+bkXvPt/6ztm2z+qrv9UYbO7CsWhu/BxYvdj4JYwXu7V++L7ZO+O2bWOp9eJSc/7pi/vNM1889tD4w8u9NV7ra2zc/jGTsy12rnQdk7593yeJPbbDNiRWVvK8kLBtkypPxZehxyTVnuk73hdfUnPg5cSRnFiSG09yY0pJXCmtLyX9MUPakSFtmb7HRpeh/fXC5/MQY8bg1YojNWNJ7XgyRUyZKq7ceuda89rLr/CZXQDAbst5Z1l1ZA4rEwAAIA/JLgBgZ/nkdS6X2QEAgDpIdgEAcOzy4DGJ7yZ/nshffg0AwC4j2QUAoIA+W6RE2G7XRZ95ay+5Xv3kUJvUHibVMSS8AACQ7AIA8CB53KQHSewqqS2l/vvzNj0eAAA2jWQXAICETV6OnEMJsn3BFiu5AAA8jGQXAIBMbWL5CV9iBQDANiDZBQDsPFu9tVXSB9ur35FtLy8OflN2XUova24/T8wqLwAAJLsAAHhDPr87xYpvX5LbJrWJL6iqpSTJBgBgbkh2AQBYAP+53dJkPUUJNQkvAGBbkewCAHaeksSSnxFKreTmXu5s37xcInbOkDgAAOwKkl0AwE5rE9TESqguE576t3Tby5HP5K+etiu4weXLbQySXgAAHkKyCwDAQFN8VhcAANRBsgsA2Gl+VTe1yrvO39sdc2my+shnbAEAOEKyCwCAo0TTLgsOP38bK5san8sFAGAYkl0AAA61lySvafV2LCXAXSu4fIYXAACSXQAAZql0RVeJuq+/LYk7AABTIdkFAKBDu+K7hkuX22Q1+JZlz463q7arepbQTvk53ba9J0+u9gAA2B4kuwCAnaeETtrP5GasiLb11vzZ3RxtQszlywAAtEh2AQAI2EppTuIrc01+AQDYZSS7AAD08JcPZ638njn+YLV4CqWf5wUAYBeR7AIAMNCcVnTbZFz9OUzGtTI9ZbINAMA2INkFAOCQJYpj5K78llA8+0KqkP+sMQAAeBjJLgBg57XfuFw5SZ2CVpGn/OZlAACWhGQXALD1xiSA/nJfrZCGl/+u+1Ll1Epue5lyYoUXAAB8FckuAAARSixTn3ud4nLlUNflyyntOVzSDABAi2QXALDVpvgypthqbnup80y+jKoLCS8AAEdIdgEAONQmuD2rtV2rvSlTXAYdrvpq31/K3TcOAAB2AckuAAAD2eXM67isGQAAlCHZBQDsvJxV3Skc/+TgwYps+wVUZ776RVu+XCvEdomytttLq5Vsc9kyAABfQbILANhatT6v6xNdSyDNNq3atokxiS8AAC2SXQAAArbS2ya+M/hSKr8CDAAA8pDsAgCw5fylzNuyCg0AwNRIdgEAOKRkseuS6Ha1d7XKq8/Q1rh8uov/rG6oPea+jRkAAHwVyS4AYOfZZcs52kubP5ku0e1Kcj37sqq2/mpVdwwukwYALM0jly9fvv/m7Xeb0ydOrYp2z6n3bjd3nzu92luWbR7bnPtuL4prvMAcYxP9WEebte/7Wn0eE2fIuSXzkFO3r07qeKrvsfIwht/39f221bEyJW+WeGk7dP369fb24sWL7W0NYXt+P0wCVab+qt/hMT+ecFyxsZrYef421odYH33/bbuGnx271d4+dW//ob7ljEPC+qqXsy0+TtcxKd0P48mYMkmVh22bVHkqjgw9Jqn2TN/xvvhSq47UridT1ZXS+rKuc2ToedL32Ogypl0zpn1TI4bUiiM1Y0nteDJFTJkqrnz005833//u945Wdo//8ugBiOXRCx77Bwb16B/rmi8kh5pLP+ZuW+ep9vN3aLyS+Qvb8Ps+jt+OnSP+eErXsVJhe9oP+yIqC8c09DGWe15JfPVvSF9MbE6P//yz9tbG7ucgJafOuoV9Gnq/Sem5qflIlXfFH3pM+u6XvuNj5syrFcfUjmdK407Vj9C62vH6HhtdNtHfmDFj8GrFkZqxpHY8mSKmTBXXa1d2Xz92pTl57syqaPecf+PD5sZLF1Z7y3L27ZvNnWf3si6Jm5s53y+6hHHv/TvNzRfOrko2YxP92Lt2t7298/R0V4PUvu9rzdOYsQ85t+T5mzNnffFSMVLzFxtT2Ibf93H8ttWxz8PqD59eGOlWL470x9C/SPIru+GxoRRHFMveZdY7zipX3/bfuvmgXP2yMs2X5u3Wd84+GI/NYzguzZMds7nT527D8/ytxdV8iG/b91Pb9oLBxqDyIWJzqpXdz86fbJ754rG2ffXJj834Mfr7Phy36uVsi50rXcekbz98fMYe22EbEisreV5I2LZJlafiy9BjkmrP9B3viy+pOfBy4khOLMmNJ7kxpSSulNaXkv6YIe3IkLZM32Ojy9D+euHzeYgxY/BqxZGasaR2PJkipkwVV269c6157eVX+MwuAABGiZ4ljdIm3UFCBwAAtgPJLgAAGbQK6xNhT+9K11hhzqHk21aijfplq7+S6mcOjSOMDwDANiLZBQDsvLl8nqyUkloSUwAA4kh2AQCLVJIEfuXS5YyV0faS50/qJMiKU5q0xlZz/T4AALuOZBcAsDhKHGuu1LaJ7eqzu20yPPHneIckvwAA4GEkuwCArZRKaGslupZs5qzylmpXYfePrfbyaVxd5ykuSTIAAEdIdgEAizE20c29hHkq4YquVpBzLk1uk2BXb2yyr/NJmgEA245kFwCAmfMrwbkJMAAAu45kFwCAQ1rJ7FrVVbIZWzFtzxv4RVVjElfrC4kvAABxJLsAgEUYcwmzP0/J49A4Mib5HaNd/S1IfLlMGQCwdCS7AAAU0ApvbAV4U0nuUEroSXgBAEtGsgsAwIpWRi2RtVVSJYVtefBzQ7GyKamtvuS0dHWXhBcAsGQkuwAAzEzJZ3mV4PqENbbqDADALiLZBQDsBFYw41jdBQAsFckuAGDrKVnr+lKpvuPSXpbcsyqqOOu8dNm0l1LbTw+t+tj2pfCyZQAAdgnJLgBg0XISXfGJriWS62KXLYeXL7fJ7CrJ7dMmxCS+AAA8QLILAFis3EQ3xq/0pr6BeSk0R5orAACWhGQXAIAO7Sqvu3RZia8l0O3K62pFNpQqHypc9TXWB9vuUpLQkgADALYdyS4AYJGGrOoqacw9J/fy4jkhgQUA7BKSXQAADrUrsVt2qbKS19hqbxcSXgDAriDZBQBgQrU/72srz6VJrkfCCwDYBSS7AIDF6buEOZbo+YQ0tcrblic+h9t1rJTatsukFbMvMVX9sckrCTAAYGlIdgEAO8OSua5E2Ch5zakXqpn0qv2Szwa39Q/bz0FyCwBYOpJdAMBOUGKXk7yqXriq67+BGQAAbAeSXQDAVstNYoeKrdS2CfGqrPZncku1lzy71dywL6zeAgB2FckuAGBRYslvTkI89LLldWmTWndJc26CrTGlEt6uYwAAbDuSXQDAonUluj7R88lju5rbk0zWuLQ5lsD6/VD4ZVW23Z7X8VldkloAwC4i2QUA7KSuJDhlE5csK8ENE9m+5DaGhBcAsGtIdgEAOyc30VW9dSS3fSu6ORSjL5kl4QUA7BKSXQDAYsWS2r5EN7yE2fbbxLfSTwr1sf7lJKaq61d5S84V1be6fhsAgG1HsgsA2BlK5CwZrG0Tlzh3SSWuJLQAgF1BsgsAwIqSwJyEtV3tXdMqr1GS+pUvs+r53C6JLQBgl5HsAgAWo2vltuSYkshU3U2yL6tS33yi25X4qm6Y8MbKAABYGpJdAMAidSW3xhK+oYnt2PNrKk14AQBYOpJdAMDixRLfVDKshNEuZfbbosuI+xJb++zu3D7D24VkGACwRCS7AAB0UMLbl+DWonYOzjycdFriHKNjPkkN9z0SWgDAriHZBQDsnNSqbpd2lXfNX0o1RG5SS/ILAFg6kl0AwKKFiW0q0bXEz1963HUZctexPmo/XMEN2ZdRpah9O97Gc3VTiWyqHACAJSLZBQAsTiqhTYnV70oKU5cV13D8k68mpEp8razrUmWPxBYAsOtIdgEAO0PJX0kS3F66PGIFtza/mgsAALqR7AIAdlqYACuZ7EqIVT/22V1dllySSHs6r++y5hif/FpS7ldzFTdc3fVlseMAACzFI5cvX77/g6s/bk4/empVtHuW/Md+m8c2977PpX+b6MfUbU4Rv1bMMXFKzy2pn1O3r07X8dSxsLxk37bDMrHymOvXr7e3Fy9ebG9jus7vEp7n92PbXWW1bn3srm0J93PknPOzY7ea4z//rJ1zq69bse3Ura8zdltyj0nfvtQuk7F1zbqPSd9xWWcdqV1PpqorpfVlXefIus8zmz5fasSQWnGkZiypHU+miClTxZUPPr7RfP+73ztKdt+8/W5z4sKZ1aHds//WzebWd86u9pZl7/077bv+U36+bCpzvl+0qqNVlDvP7q1KNmMT/VjHY6r2fV9rnsaMfci5JefkzFlfvFSM1PzF4oVlft/H8dtWR/t2a+wPoW6NJbtPPP9Ue2vHwnriy/qOi/ZFZbbdx/f91Hu3m7vPnX5oLHarsdoc262NXedZuZ1vsX3MkPqpY6rTNda+fYmdb7ea809f3G+e+eKxr4zL3+p+DseWKsvZFjtXuo5J3354fuyxHdaRWFnJ80JKy1PxZegxSbVn+o73xZe+GJITR3JiSW48yY0pJXGltL6U9McMaUeGtGXGnDu0v174fB5izBi8WnGkZiypHU+miClTxZVPf3T1y2T39WNXmpPndjfZPf/Gh82Nly6s9pbl7Ns3239Yhlwet2lzvl/0BTJ6gt58Ydw/umNtoh971+62t3eenu5qkNr3fa15GjP2IeeWPH9z5qwvXipGav5iYwrb8Ps+jt+2OnoxJHpBpD9+uvUJl8lJdsNkzZeZcF8sqbRzrR8S29ataFtjsBdjGpv2/a3GanPcdWvnW2xLhFUm1rb6GEuCY+ONjdXKYvXCMr1D/tn5k22y68dl95nRY8HG4u97K/OPmZxtsXOl65j07YePz9hjO2xDYmUlzwsJ2zap8lR8GXpMUu2ZvuN98SU1B15OHMmJJbnxJDemlMSV0vpS0h8zpB0Z0pbpe2x0GdpfL3w+DzFmDF6tOFIzltSOJ1PElKniyq13rjWvvfwKn9kFACyLT9RK6DyfOPrkdtOUVPrE2ra7WNIabgMAsCtIdgEAixcmwH37fXTJVUn9HFr58Alpm9QGl3apzVSi23UMAIBdRLILAFik0gTW07m2gloaQ5djjUmE/SruWDn9UB2fZAMAsBQkuwCAnVa8qnuYiIafVd2U8JJm7YeJq+2T1AIAdg3JLgBgp3Qlt6mVXEsow2O6zFgJ5iaF7ecmtSS/AIClI9kFACxaV3Lrj2nbJ47tCu6mE9lb96IJabiC61d3QyS1AIBdRbILANg6B0+eTCawQ/ikd4w2Yf6kXr+GSiW4JL4AgF1CsgsA2Bk+qc1NcNsEtmeFt10FnvBzvNa+9SVcyQ1XegEAAMkuAGDHxZLenEuY28SzI8Ed+63MOjf86aFQW8clvtq3pDe1DQDAriDZBQAsTiyBzdUmsUGi65Pf2l9KFf6+LgAAqINkFwCwWKmkd2gy3CbChZcrj13hjVGyHV7KbEpWca1uyTkAAGwLkl0AwGJ0JbGxY74sPK5kMhVrCkqibQXZLl+2si6liW+sDACAJSLZBQBgICWl60yIRe2FyW2Y8A5NckmEAQBLQrILANgpSubCBDUssxXWubC+9a3yAgCAL5HsAgC2XiyB7ZN7Tk7iW/tLq3KoPb8KG+4bjTFWDgDA0pHsAgB2Wk7Sq4Q3rNMmwYkvq1JMfcvyJpHkAgB2HckuAGDxchJaseTQVmnbpNWt2NplxKlYXQlwCcXITVTVF9+vrvNIgAEAu4RkFwCwSErqwqTUymLH1m3M7+sqAbcEN0eY5JL0AgB2AckuAGBnzSHpLZH6XG4q+c1Jakl8AQBLRbILAFiUoQmsP0+Jo9/2lzKHdF6NS5eN2n3wO7tKYlfboTDBtUSY5BUAgCMkuwAAOH3J7brZ53fD5BYAAHQj2QUA7BS/+mmrtzks4TS1fm5IyeyUSeyQlV5WhwEAS0CyCwDYCV3JbW7ia6u+beJb8dJlaVduE5csh9RX3xdjSWosWe06JqlyAAC2FckuAGDRLMHLoboPrd5mXtKsJDW3jRxTr/YCALALSHYBANgS7epvJAlWok1yDADAw0h2AQA7x6/22na4AmyrvEoih67atjE+Gb7i2yaxq0ub2+2OhNYuafZj0W1K33EAALYdyS4AYBEswQu3vVR5LTlfWqXktyTJTF3SnFrljSGxBQDsIpJdAABWLCGMJcRKLGOJbFse+bKq2l9gFVOS8ApJLwBgl5DsAgAWL2dFtyTB7VOSgHpKkPuSUfUnVceSWZJaAABIdgEAO6w0MVQSq/qWzMYS5DlJ9S8cc8kcAACwLUh2AQA7xRLcbRRbZe5a6RWSWADAriLZBQAsVkliG9b1lzDr2JDLmUuobfvmZbVl2yG/quwvl9Z+V2LbdxwAgKUh2QUALEZXcps6FitXWWly255T8Uup/Od3+1ZvPUtqhya3Q88DAGBuSHYBADvJEsJcfqV3ndpVXreCG+4DAIA4kl0AwFYqTVa7+JVQH1NJZdiG6vikN+e3dWO0cmsJdOqS5T5h4mtj6JJTBwCAJSDZBQCgkCWpbeK7ht/T7RImvKGu5JbEFwCwZCS7AIBFUzJnq7N+u48ltCW0QpsbP8ZWe1MUu+u4IYkFAIBkFwCww3IT4SGJb03h6q2tKptw34RJL0kwAGCXkOwCABalK2mNidXfdHKr/gz9HG9uQkviCwBYOpJdAMDihQltV0KsYz7RtX0lwKlzQkO/tMqzS5rVpl/V9bqOAQCw60h2AQDYIpZ4h5T4+pXacD/HkHMAAJgrkl0AwM5TgqdEL4cSzdiqbVs+8JuZdd7QJDOV/HoksQCAXUSyCwBYpDCB7dsPKYG042GC+9CxjG9gVlvHP+mu00ftW8IaJrj+mKg/fh8AgF1EsgsA2Flhwmv7YXKb0tbrWM3tO74OscSXZBgAsAtIdgEAWy1MWJcoXMmdAgkwAGBpSHYBADulLznW8dSqbtexGtqktucnh9R3W3kOk9OchJWkFgCwK0h2AQCLpaSuK7GVvjq5lzQbxSu5dLlNXl2Ca19WpTZjCW2oPf+wj7EkNlYGAMCueOTy5cv3f3D1x83pR0+tinbPkl8MbPPY5t73ufRvE/2Yus0p4teKOSZO6bkl9XPq9tXpOp46FpaX7Nt2WCZWHnP9+vX29uLFi+2tiZ3TFSd1LCzv2u/b7iqLHRuyLeG+lzpWUv6zY7ea4z//rJ1zO65bse3Ura8zdltyj0nfvtQuk7F1zbqPSd9xWWcdqV1PpqorpfVlXefIus8zmz5fasSQWnGkZiypHU+miClTxZUPPr7RfP+73ztKdt+8/W5z4sKZ1aHds//WzebWd86u9pZl7/077Tv+fZfFzdGc7xetvGjF5c6ze6uSzdhEP9bxmKp939eapzFjH3JuyTk5c9YXLxUjNX+xeGGZ3/dx/LbV0b7dGvtDqFujZPfgyZPNNx4//5Xj9kfTl6duJVZfrFxUdve5082p924/VC7+mG59340fW1gvVpaS6ofvu5VrW3x56a3Y9kc/+Vnz6Yv7zTNfPPaV+8rf6n62x5G/72NlOdviH5ddx6RvPzw/9tgO60isrOR5IaXlqfgy9Jik2jN9x/viS18MyYkjObEkN57kxpSSuFJaX0r6Y4a0I0PaMmPOHdpfL3w+DzFmDF6tOFIzltSOJ1PElKniyqc/uvplsvv6sSvNyXO7m+yef+PD5sZLF1Z7y3L27ZvtPywHZx5+gbYN5ny/6CdE9AS9+cK4f3TH2kQ/9q7dbW/vPD3d1SC17/ta8zRm7EPOLXn+5sxZX7xUjNT8xcYUtuH3fRy/bXX0Ykj0gkh//HTrEzCTSnYtQZPUfl+53ap9n1T6feublVs/9SJMY/LluhVta4z2Yk317Jjixs4Nt0X7YT/6xmRKy8XK9A75Z+dPtsmuxqG++vvM6LFgjyN/31uZf8zkbIt/XHYdk7798PEZe2yHbUisrOR5IWHbJlWeii9Dj0mqPdN3vC++pObAy4kjObEkN57kxpSSuFJaX0r6Y4a0I0PaMn2PjS5D++uFz+chxozBqxVHasaS2vFkipgyVVy59c615rWXX+EzuwCA7WfJ2liW7PkEM4fOCxO/mjQ2S46N+hiWpcQSWQAAlo5kFwCweKlkOCdJ9qurfrsmJco5iava7kpaS5NakmAAwJKR7AIAcKgv6S2hzx/1xWtXZns+p9S3etuX/AoJLQBgV5HsAgAWQQldX4KZqtOVDIYruUo+aybGnsW1NnJWe43qh+OIlQEAsCtIdgEAOBRLhH2yqeNh4rtOfpU3TISHJLUkwgCApSPZBQAsRixhDXXV8ce03ZXcKtncZPLbpS+RJdEFAOwCkl0AwM7pSnjHapPgit/MnEqoU+UksgAAHCHZBQAsTk4ym6oTlit5tf1wNfehYxlfSjWUJa9qW20av51D/SMRBgDsCpJdAMBO60qMw+Q2pa03YDVX54xJPn3ya2NIxSPRBQDsGpJdAMAidSWxYyl2VhK8f+wr9XJ/U1fClVwAAJCPZBcAsFi5Ca+teHbVzV3lrUHthKuw6pv1wR+L1fVsTF11AABYIpJdAMCiKcnLXeH1dfuS25rJr+JoFfjBdoXV3NwxAwCwVCS7AICdUJr0+kQ23J9C6vO7qeRXY0klxTqmWLF4AADsCpJdAMDOUPI3ZsVTyWV4/joSYZOz6muJLgAAu45kFwCwU8YmvDFKQMOEt02CK/7ebkyY/JLoAgDwJZJdAMDOsYS3L/H1K7mxhDYm9g3MQ6ntcCU3THCtLZJcAAAeRrILANhpliSGSW9Xcps6plhTrOaqLZJZAADKkOwCAHDIVnntdpPC1dsp2Bjt1sY9dbsAAKwLyS4AAIF2hTaxqmuUFG4qKR660usTWxPGsXGT9AIAth3JLgAAPfxlyzmJcI52FXX127peuLqqtmw/PBbuez6x9dsAAOwKkl0AADrUSm5j9PleS1Z9UluKxBYAgK8i2QUAoJCSUkuA/fZQXSu0fdQ2iS0AAF9FsgsAQISST1sllXDf6zo2lE9i/aqv354SSTQAYNuR7AIAdoZPSu2SX0scte3LlOzN1boSXgAAthnJLgBg8fwKqSW0ou0wqY2VpZLfWN1YvVKKQTILAMA4JLsAgEXyK7Y1da36phLU9pxb91Z7ZfxKsyXtEu4DAICHkewCANChK7mNUf2hCfaQBNaSYbsFAABHSHYBAItTmqDmKrnE2RLP2ivLsaTWkmS7JQEGAIBkFwCwMLGEdKhULEskp6R2LVH127ks8bVbAAB2DckuAACOJZVTJ7OhkoR2SPLLKi8AYNeQ7AIAcMhWP5VIhpQkWvKr7VidmivKMWGCOyThtf6R9AIAdgHJLgBgEXxCmsuSvq7zVCeVxHYdy6Xzw8uMbRU2dgwAAOQh2QUA7KQaiWpoiphdhibDJecp8f7s/MnVHgAA24NkFwCwc6a+5DiX+qAE2YT7oVSSaivBdgsAAEh2AQALkLuiaglhrjCu37eEuTTmEGESG0tqU4lwF5JjAMCSkewCAHaCT1RzhKu/JavBJXVTdP6QRFTnqX0SWQDAriPZBQBgxZLDqVdqLSEFAADTIdkFACxe6aqup3N98uv3x8QNxVZi/equ35ZwP8b61lUvJw4AANuIZBcAsPNsldWSwyGUMI453yhGatU3TExJVAEASCPZBQAsWtfnZ5Uodl2yHCawJQltSd0x1EbfJdF9dXScpBkAsDQkuwCAnbSuZLRPX6IZJqqpxDV2GTQAALuMZBcAgIi+ZNgft9VjlXWtFJcYkrxaH1JIiAEAu4RkFwCw1XzS6Y1JPC159VLtlOpKSLuOhYlqKnHtigEAwC4h2QUA7Bwlg7HEVeWxBDlMfmPJMAAAmBeSXQDATkklqqkEuEsqOfZKE2PVtZVZvy19+0blajcmdQ4AAEtDsgsAWBwlc0rqxlIcn8yG+96QNlOXInt9yWnX8Zz4RnFSCTIAANuIZBcAsPNiiWqszO/HjpuuYzGqm5toqm6YwJacL7EYAAAsDckuAGAnKLmLrcrmXmZMcggAwHYh2QUAIFC6Mltav0+4Utu3b2KXLasuiToAYBeR7AIAFi+WjKosd6U3PD8Wz+SuFMeUfMZWcuurPyVxAQBYApJdAAA69CWvY5LbPmEym5Pc5ia2qhdbHQYAYClIdgEAi6JEry/5jNVRWWylN1Q7uc1NTlNi54+NCQDAEpDsAgAQkZv8pgw9P0xU+/aF5BYAgK8i2QUA7DwlikoYTbgvKvPJa99+l9LkNKw/JLnVOTmXLWsMpbEBAJgjkl0AwKIpcQsT11JhjBoxvTB5DfeHUAw+kwsA2F1N8/8Hpnmy3ZgPVloAAAAASUVORK5CYII=;" vertex="1" parent="1">
          <mxGeometry x="90" y="-29" width="955" height="898" as="geometry" />
        </mxCell>
        <mxCell id="t82FVjg4iUb7KnNwJvCD-2" value="" style="endArrow=classic;startArrow=classic;html=1;rounded=0;" parent="1" edge="1">
          <mxGeometry width="50" height="50" relative="1" as="geometry">
            <mxPoint x="80" y="400" as="sourcePoint" />
            <mxPoint x="80" y="-27" as="targetPoint" />
          </mxGeometry>
        </mxCell>
        <mxCell id="t82FVjg4iUb7KnNwJvCD-3" value="&lt;font style=&quot;font-size: 20px;&quot;&gt;$$H_2=5\;m$$&lt;/font&gt;" style="text;html=1;align=center;verticalAlign=middle;whiteSpace=wrap;rounded=0;rotation=-90;" parent="1" vertex="1">
          <mxGeometry x="20" y="220" width="85" height="30" as="geometry" />
        </mxCell>
        <mxCell id="t82FVjg4iUb7KnNwJvCD-5" value="" style="endArrow=classic;startArrow=classic;html=1;rounded=0;" parent="1" edge="1">
          <mxGeometry width="50" height="50" relative="1" as="geometry">
            <mxPoint x="80" y="868" as="sourcePoint" />
            <mxPoint x="80" y="440" as="targetPoint" />
          </mxGeometry>
        </mxCell>
        <mxCell id="t82FVjg4iUb7KnNwJvCD-6" value="&lt;font style=&quot;font-size: 20px;&quot;&gt;$$H_1=5\;m$$&lt;/font&gt;" style="text;html=1;align=center;verticalAlign=middle;whiteSpace=wrap;rounded=0;rotation=-90;" parent="1" vertex="1">
          <mxGeometry x="20" y="663" width="85" height="30" as="geometry" />
        </mxCell>
        <mxCell id="t82FVjg4iUb7KnNwJvCD-9" value="" style="endArrow=classic;startArrow=classic;html=1;rounded=0;" parent="1" edge="1">
          <mxGeometry width="50" height="50" relative="1" as="geometry">
            <mxPoint x="90" y="881.5" as="sourcePoint" />
            <mxPoint x="519" y="881" as="targetPoint" />
          </mxGeometry>
        </mxCell>
        <mxCell id="t82FVjg4iUb7KnNwJvCD-10" value="&lt;font style=&quot;font-size: 20px;&quot;&gt;$$L_1=5\;m$$&lt;/font&gt;" style="text;html=1;align=center;verticalAlign=middle;whiteSpace=wrap;rounded=0;rotation=0;" parent="1" vertex="1">
          <mxGeometry x="250" y="881" width="85" height="30" as="geometry" />
        </mxCell>
        <mxCell id="t82FVjg4iUb7KnNwJvCD-11" value="" style="endArrow=classic;startArrow=classic;html=1;rounded=0;" parent="1" edge="1">
          <mxGeometry width="50" height="50" relative="1" as="geometry">
            <mxPoint x="613" y="879" as="sourcePoint" />
            <mxPoint x="1045" y="880" as="targetPoint" />
          </mxGeometry>
        </mxCell>
        <mxCell id="t82FVjg4iUb7KnNwJvCD-12" value="&lt;font style=&quot;font-size: 20px;&quot;&gt;$$L_2=5\;m$$&lt;/font&gt;" style="text;html=1;align=center;verticalAlign=middle;whiteSpace=wrap;rounded=0;rotation=0;" parent="1" vertex="1">
          <mxGeometry x="801" y="881" width="85" height="30" as="geometry" />
        </mxCell>
        <mxCell id="t82FVjg4iUb7KnNwJvCD-13" value="" style="rounded=0;whiteSpace=wrap;html=1;fillColor=none;strokeColor=#FF0000;strokeWidth=5;" parent="1" vertex="1">
          <mxGeometry x="500" y="381" width="135" height="78" as="geometry" />
        </mxCell>
        <mxCell id="t82FVjg4iUb7KnNwJvCD-14" value="&lt;font color=&quot;#ff0000&quot;&gt;&lt;span style=&quot;font-size: 20px; background-color: rgb(255, 255, 255);&quot;&gt;$$\mathrm{Figure\, (b)}$$&lt;/span&gt;&lt;/font&gt;" style="text;html=1;align=center;verticalAlign=middle;whiteSpace=wrap;rounded=0;fillColor=default;" parent="1" vertex="1">
          <mxGeometry x="727" y="250" width="133" height="30" as="geometry" />
        </mxCell>
        <mxCell id="t82FVjg4iUb7KnNwJvCD-16" value="" style="shape=flexArrow;endArrow=classic;html=1;rounded=0;strokeColor=#FF0000;strokeWidth=5;" parent="1" edge="1">
          <mxGeometry width="50" height="50" relative="1" as="geometry">
            <mxPoint x="650" y="360" as="sourcePoint" />
            <mxPoint x="714" y="290" as="targetPoint" />
          </mxGeometry>
        </mxCell>
      </root>
    </mxGraphModel>
  </diagram>
</mxfile>
